<?xml version="1.0" encoding="UTF-8" standalone="no"?>
<svg
   xmlns:dc="http://purl.org/dc/elements/1.1/"
   xmlns:cc="http://creativecommons.org/ns#"
   xmlns:rdf="http://www.w3.org/1999/02/22-rdf-syntax-ns#"
   xmlns:svg="http://www.w3.org/2000/svg"
   xmlns="http://www.w3.org/2000/svg"
   xmlns:sodipodi="http://sodipodi.sourceforge.net/DTD/sodipodi-0.dtd"
   xmlns:inkscape="http://www.inkscape.org/namespaces/inkscape"
   width="3.7676547mm"
   height="7.7998919mm"
   viewBox="0 0 3.7676546 7.799892"
   version="1.1"
   id="svg863"
   sodipodi:docname="percent.svg"
   inkscape:version="1.0 (4035a4fb49, 2020-05-01)">
  <defs
     id="defs857">
    <inkscape:path-effect
       hide_knots="false"
       only_selected="true"
       apply_with_radius="true"
       apply_no_radius="true"
       use_knot_distance="true"
       flexible="false"
       chamfer_steps="1"
       radius="1"
       mode="F"
       method="auto"
       unit="px"
       satellites_param="F,0,0,1,0,0.26458333,0,1 @ F,0,0,1,0,0.26458333,0,1 @ F,0,0,1,0,0.26458333,0,1 @ F,0,0,1,0,0.26458333,0,1 | F,0,0,1,0,0,0,1 @ F,0,0,1,0,0,0,1 @ F,0,0,1,0,0,0,1 @ F,0,0,1,0,0,0,1 @ F,0,0,1,0,0,0,1 @ F,0,0,1,0,0,0,1 @ F,0,0,1,0,0,0,1 @ F,0,0,1,0,0,0,1 @ F,0,0,1,0,0,0,1 @ F,0,0,1,0,0,0,1 | F,0,0,1,0,0,0,1 @ F,0,0,1,0,0,0,1 @ F,0,0,1,0,0,0,1 @ F,0,0,1,0,0,0,1 @ F,0,0,1,0,0.26458333,0,1 @ F,0,0,1,0,0.26458333,0,1 @ F,0,0,1,0,0.26458333,0,1 @ F,0,0,1,0,0.26458333,0,1 @ F,0,1,1,0,0.05004651,0,1 @ F,0,0,1,0,0.26458333,0,1 | F,0,0,1,0,0,0,1 @ F,0,0,1,0,0,0,1 @ F,0,0,1,0,0,0,1 @ F,0,0,1,0,0,0,1 @ F,0,0,1,0,0,0,1 @ F,0,0,1,0,0,0,1 @ F,0,0,1,0,0,0,1 @ F,0,0,1,0,0,0,1 @ F,0,0,1,0,0,0,1 | F,0,0,1,0,0,0,1 @ F,0,0,1,0,0,0,1 @ F,0,0,1,0,0,0,1 @ F,0,0,1,0,0,0,1 @ F,0,0,1,0,0,0,1 @ F,0,0,1,0,0,0,1 @ F,0,0,1,0,0,0,1 @ F,0,0,1,0,0,0,1"
       lpeversion="1"
       is_visible="true"
       id="path-effect835"
       effect="fillet_chamfer" />
  </defs>
  <sodipodi:namedview
     id="base"
     pagecolor="#ffffff"
     bordercolor="#666666"
     borderopacity="1.0"
     inkscape:pageopacity="0.0"
     inkscape:pageshadow="2"
     inkscape:zoom="11.2"
     inkscape:cx="-6.9106357"
     inkscape:cy="16.062229"
     inkscape:document-units="mm"
     inkscape:current-layer="layer1"
     showgrid="false"
     inkscape:window-width="1366"
     inkscape:window-height="716"
     inkscape:window-x="-8"
     inkscape:window-y="22"
     inkscape:window-maximized="1"
     fit-margin-top="0"
     fit-margin-left="0"
     fit-margin-right="0"
     fit-margin-bottom="0"
     inkscape:document-rotation="0" />
  <metadata
     id="metadata860">
    <rdf:RDF>
      <cc:Work
         rdf:about="">
        <dc:format>image/svg+xml</dc:format>
        <dc:type
           rdf:resource="http://purl.org/dc/dcmitype/StillImage" />
        <dc:title></dc:title>
      </cc:Work>
    </rdf:RDF>
  </metadata>
  <g
     inkscape:label="Ebene 1"
     inkscape:groupmode="layer"
     id="layer1"
     transform="translate(-59.011685,-135.20148)">
    <g
       style="font-size:10.5833px;line-height:1.25;font-family:Corporate;-inkscape-font-specification:Corporate;letter-spacing:0px;word-spacing:0px;display:inline;stroke-width:0.264583"
       id="text834-8"
       transform="translate(58.306205,136.62318)"
       aria-label="%">
      <path
         inkscape:path-effect="#path-effect835"
         inkscape:original-d="M 1.7426433,6.2723608 2.9914727,-1.3476149 H 3.4253879 L 2.1765586,6.2723608 Z M 0.70547993,2.6740389 v -3.46073896 c 0,-0.20461043 0.0388054,-0.35277664 0.1164163,-0.44449854 C 0.89950709,-1.3229205 1.03709,-1.3864203 1.2346449,-1.421698 h 0.2645825 c 0.3457211,0.042333 0.5185817,0.2504715 0.5185817,0.62441464 V 2.6740389 c 0,0.3739433 -0.165805,0.5856093 -0.4974151,0.634998 -0.084666,0.014111 -0.1481662,0.021167 -0.1904994,0.021167 -0.2046105,0 -0.35983219,-0.056444 -0.46566517,-0.1693328 C 0.75839643,3.0479823 0.70547993,2.8857049 0.70547993,2.6740389 Z M 3.1502221,5.7220292 V 2.2718735 c 0,-0.2046105 0.038805,-0.3527766 0.1164163,-0.4444985 0.077611,-0.091722 0.1975549,-0.1481662 0.3598322,-0.1693328 0.1622773,-0.028222 0.2931668,-0.013748 0.3425555,-0.00669 0.3527767,0.049389 0.5041085,0.2359981 0.5041085,0.6099414 v 3.460739 c 0,0.3809988 -0.1693328,0.5961926 -0.5079984,0.6455813 -0.042333,0.00706 0.076819,0.00849 -0.1799161,0.010583 -0.2567354,0.00209 -0.634998,-0.2187214 -0.634998,-0.6561642 z M 1.4674775,2.748122 c 0.028222,-0.042333 0.042333,-0.081139 0.042333,-0.1164163 v -3.37607256 c 0,0 0.033426,-0.17991609 -0.1375827,-0.17991609 -0.1710087,0 -0.1481662,0.19049939 -0.1481662,0.19049939 V 2.6317057 c 0,0.028222 0.00353,0.052916 0.010583,0.074083 0.021167,0.021167 0.03175,0.035278 0.03175,0.042333 0.021167,0.028222 0.052917,0.042333 0.09525,0.042333 0.042333,0 0.077611,-0.014111 0.1058329,-0.042333 z M 3.9122197,5.7961123 C 3.9404417,5.753779 3.9545527,5.7149735 3.9545527,5.679696 V 2.3142067 c 0,0 0.028857,-0.1799161 -0.1375827,-0.1799161 -0.1664393,0 -0.1481662,0.1799161 -0.1481662,0.1799161 v 3.3760726 c 0,0.042333 0.017639,0.081139 0.052916,0.1164163 0.028222,0.028222 0.059972,0.042333 0.09525,0.042333 0.042333,0 0.074083,-0.017639 0.09525,-0.052916 z"
         sodipodi:nodetypes="cccccsssccsscssscssccssczsccczcsccsccsczcssscs"
         id="path832"
         style="stroke-width:0.264583"
         d="m 1.7854347,6.0112608 1.1632466,-7.0977757 a 0.31147535,0.31147535 139.6537 0 1 0.3073747,-0.2611 0.19034935,0.19034935 64.143147 0 1 0.1265405,0.2611 L 2.21935,6.0112608 a 0.31147535,0.31147535 139.6537 0 1 -0.3073747,0.2611 0.19034938,0.19034938 64.14313 0 1 -0.1265406,-0.2611 z M 0.70547993,2.6740389 v -3.46073896 c 0,-0.20461043 0.0388054,-0.35277664 0.1164163,-0.44449854 C 0.89950709,-1.3229205 1.03709,-1.3864203 1.2346449,-1.421698 h 0.2645825 c 0.3457211,0.042333 0.5185817,0.2504715 0.5185817,0.62441464 V 2.6740389 c 0,0.3739433 -0.165805,0.5856093 -0.4974151,0.634998 -0.084666,0.014111 -0.1481662,0.021167 -0.1904994,0.021167 -0.2046105,0 -0.35983219,-0.056444 -0.46566517,-0.1693328 C 0.75839643,3.0479823 0.70547993,2.8857049 0.70547993,2.6740389 Z M 3.1502221,5.7220292 V 2.2718735 c 0,-0.2046105 0.038805,-0.3527766 0.1164163,-0.4444985 0.077611,-0.091722 0.1975549,-0.1481662 0.3598322,-0.1693328 0.027342,-0.00476 0.053793,-0.0083 0.079113,-0.010869 0.1447695,-0.014698 0.3874479,0.011103 0.5153521,0.080035 0.1087133,0.058589 0.1799242,0.1474909 0.2181232,0.2711955 0.043196,0.1398868 0.034076,0.3813471 0.034076,0.5274724 v 2.9315724 c 0,0.1461253 0.00751,0.38642 -0.033728,0.5260732 C 4.3996911,6.1180357 4.3249001,6.2182045 4.215034,6.2840288 4.090195,6.3588238 3.8847569,6.3773854 3.7852201,6.3781969 3.5416601,6.3572626 3.301857,6.2242917 3.1998656,5.9793231 3.1442413,5.8457216 3.1502221,5.7220311 3.1502221,5.7220292 Z M 1.4674775,2.748122 c 0.028222,-0.042333 0.042333,-0.081139 0.042333,-0.1164163 v -3.37607256 c 0,0 0.033426,-0.17991609 -0.1375827,-0.17991609 -0.1710087,0 -0.1481662,0.19049939 -0.1481662,0.19049939 V 2.6317057 c 0,0.028222 0.00353,0.052916 0.010583,0.074083 0.021167,0.021167 0.03175,0.035278 0.03175,0.042333 0.021167,0.028222 0.052917,0.042333 0.09525,0.042333 0.042333,0 0.077611,-0.014111 0.1058329,-0.042333 z M 3.9122197,5.7961123 C 3.9404417,5.753779 3.9545527,5.7149735 3.9545527,5.679696 V 2.3142067 c 0,0 0.028857,-0.1799161 -0.1375827,-0.1799161 -0.1664393,0 -0.1481662,0.1799161 -0.1481662,0.1799161 v 3.3760726 c 0,0.042333 0.017639,0.081139 0.052916,0.1164163 0.028222,0.028222 0.059972,0.042333 0.09525,0.042333 0.042333,0 0.074083,-0.017639 0.09525,-0.052916 z" />
    </g>
  </g>
</svg>
