<?xml version="1.0" encoding="UTF-8" standalone="no"?>
<svg
   xmlns:dc="http://purl.org/dc/elements/1.1/"
   xmlns:cc="http://creativecommons.org/ns#"
   xmlns:rdf="http://www.w3.org/1999/02/22-rdf-syntax-ns#"
   xmlns:svg="http://www.w3.org/2000/svg"
   xmlns="http://www.w3.org/2000/svg"
   xmlns:sodipodi="http://sodipodi.sourceforge.net/DTD/sodipodi-0.dtd"
   xmlns:inkscape="http://www.inkscape.org/namespaces/inkscape"
   width="6.6248975mm"
   height="6.6352329mm"
   viewBox="0 0 6.6248973 6.635233"
   version="1.1"
   id="svg863"
   sodipodi:docname="plus.svg"
   inkscape:version="1.0 (4035a4fb49, 2020-05-01)">
  <defs
     id="defs857">
    <inkscape:path-effect
       hide_knots="false"
       only_selected="false"
       apply_with_radius="true"
       apply_no_radius="true"
       use_knot_distance="true"
       flexible="false"
       chamfer_steps="1"
       radius="1"
       mode="F"
       method="auto"
       unit="px"
       satellites_param="F,0,0,1,0,0.26458333,0,1 @ F,0,0,1,0,0.26458333,0,1 @ F,0,0,1,0,0.26458333,0,1 @ F,0,0,1,0,0.26458333,0,1 @ F,0,0,1,0,0.26458333,0,1 @ F,0,0,1,0,0.26458333,0,1 @ F,0,0,1,0,0.26458333,0,1 @ F,0,0,1,0,0.26458333,0,1 @ F,0,0,1,0,0.26458333,0,1 @ F,0,0,1,0,0.26458333,0,1 @ F,0,0,1,0,0.26458333,0,1 @ F,0,0,1,0,0.26458333,0,1"
       lpeversion="1"
       is_visible="true"
       id="path-effect835"
       effect="fillet_chamfer" />
  </defs>
  <sodipodi:namedview
     id="base"
     pagecolor="#ffffff"
     bordercolor="#666666"
     borderopacity="1.0"
     inkscape:pageopacity="0.0"
     inkscape:pageshadow="2"
     inkscape:zoom="11.2"
     inkscape:cx="14.826337"
     inkscape:cy="14.767775"
     inkscape:document-units="mm"
     inkscape:current-layer="layer1"
     showgrid="false"
     inkscape:window-width="1366"
     inkscape:window-height="716"
     inkscape:window-x="-8"
     inkscape:window-y="22"
     inkscape:window-maximized="1"
     fit-margin-top="0"
     fit-margin-left="0"
     fit-margin-right="0"
     fit-margin-bottom="0"
     inkscape:document-rotation="0" />
  <metadata
     id="metadata860">
    <rdf:RDF>
      <cc:Work
         rdf:about="">
        <dc:format>image/svg+xml</dc:format>
        <dc:type
           rdf:resource="http://purl.org/dc/dcmitype/StillImage" />
        <dc:title></dc:title>
      </cc:Work>
    </rdf:RDF>
  </metadata>
  <g
     inkscape:label="Ebene 1"
     inkscape:groupmode="layer"
     id="layer1"
     transform="translate(-59.900227,-136.26031)">
    <g
       style="font-size:10.5833px;line-height:1.25;font-family:Corporate;-inkscape-font-specification:Corporate;letter-spacing:0px;word-spacing:0px;display:inline;stroke-width:0.264583"
       id="text834-8"
       transform="translate(58.306205,136.62318)"
       aria-label="+">
      <path
         inkscape:original-d="M 5.3405518,-0.36287198 V 2.5154961 H 8.2189199 V 3.3939927 H 5.3405518 V 6.2723608 H 4.4723905 V 3.3939927 H 1.5940223 V 2.5154961 h 2.8783682 v -2.87836808 z"
         inkscape:path-effect="#path-effect835"
         id="path832"
         style="stroke-width:0.264583"
         d="M 5.3405518,-0.09828865 V 2.2509128 a 0.26458333,0.26458333 45 0 0 0.2645833,0.2645833 h 2.3492015 a 0.26458333,0.26458333 45 0 1 0.2645833,0.2645833 v 0.34933 A 0.26458333,0.26458333 135 0 1 7.9543366,3.3939927 H 5.6051351 A 0.26458333,0.26458333 135 0 0 5.3405518,3.658576 l 0,2.3492015 A 0.26458333,0.26458333 135 0 1 5.0759685,6.2723608 H 4.7369738 A 0.26458333,0.26458333 45 0 1 4.4723905,6.0077775 V 3.658576 A 0.26458333,0.26458333 45 0 0 4.2078072,3.3939927 H 1.8586056 A 0.26458333,0.26458333 45 0 1 1.5940223,3.1294094 v -0.34933 A 0.26458333,0.26458333 135 0 1 1.8586056,2.5154961 H 4.2078072 A 0.26458333,0.26458333 135 0 0 4.4723905,2.2509128 v -2.34920145 a 0.26458333,0.26458333 135 0 1 0.2645833,-0.26458333 h 0.3389947 a 0.26458333,0.26458333 45 0 1 0.2645833,0.26458333 z" />
    </g>
  </g>
</svg>
