<?xml version="1.0" encoding="UTF-8" standalone="no"?>
<!-- Created with Inkscape (http://www.inkscape.org/) -->

<svg
   xmlns:dc="http://purl.org/dc/elements/1.1/"
   xmlns:cc="http://creativecommons.org/ns#"
   xmlns:rdf="http://www.w3.org/1999/02/22-rdf-syntax-ns#"
   xmlns:svg="http://www.w3.org/2000/svg"
   xmlns="http://www.w3.org/2000/svg"
   xmlns:sodipodi="http://sodipodi.sourceforge.net/DTD/sodipodi-0.dtd"
   xmlns:inkscape="http://www.inkscape.org/namespaces/inkscape"
   width="1.9790829mm"
   height="7.78934mm"
   viewBox="0 0 1.9790829 7.78934"
   version="1.1"
   id="svg863"
   sodipodi:docname="0.svg"
   inkscape:version="0.92.2 (5c3e80d, 2017-08-06)">
  <defs
     id="defs857" />
  <sodipodi:namedview
     id="base"
     pagecolor="#ffffff"
     bordercolor="#666666"
     borderopacity="1.0"
     inkscape:pageopacity="0.0"
     inkscape:pageshadow="2"
     inkscape:zoom="44.8"
     inkscape:cx="6.195393"
     inkscape:cy="6.1159342"
     inkscape:document-units="mm"
     inkscape:current-layer="layer1"
     showgrid="false"
     inkscape:window-width="1366"
     inkscape:window-height="716"
     inkscape:window-x="-8"
     inkscape:window-y="22"
     inkscape:window-maximized="1"
     fit-margin-top="0"
     fit-margin-left="0"
     fit-margin-right="0"
     fit-margin-bottom="0" />
  <metadata
     id="metadata860">
    <rdf:RDF>
      <cc:Work
         rdf:about="">
        <dc:format>image/svg+xml</dc:format>
        <dc:type
           rdf:resource="http://purl.org/dc/dcmitype/StillImage" />
        <dc:title />
      </cc:Work>
    </rdf:RDF>
  </metadata>
  <g
     inkscape:label="Ebene 1"
     inkscape:groupmode="layer"
     id="layer1"
     transform="translate(-58.306205,-136.62318)">
    <g
       aria-label="0"
       style="font-style:normal;font-weight:normal;font-size:10.58333302px;line-height:1.25;font-family:sans-serif;letter-spacing:0px;word-spacing:0px;fill:#000000;fill-opacity:1;stroke:none;stroke-width:0.26458332"
       id="text829">
      <path
         d="m 58.306205,143.71402 v -6.39234 c 0,-0.46567 0.310445,-0.6985 0.931334,-0.6985 0.134055,0 0.282222,0.0106 0.4445,0.0318 0.402166,0.0565 0.603249,0.27872 0.603249,0.66675 v 6.39234 c 0,0.40217 -0.197555,0.62442 -0.592666,0.66675 -0.169333,0.0211 -0.3175,0.0317 -0.4445,0.0317 -0.627945,0 -0.941917,-0.23283 -0.941917,-0.6985 z m 1.121834,-0.127 c 0.04233,-0.0565 0.0635,-0.11644 0.0635,-0.17992 v -5.76792 c 0,0 0.01077,-0.24341 -0.1905,-0.24341 -0.201274,0 -0.1905,0.22225 -0.1905,0.22225 v 5.842 c 0,0.0565 0.01764,0.10585 0.05292,0.14816 0.03528,0.0353 0.07761,0.0529 0.127,0.0529 0.05645,0 0.102308,-0.0247 0.137584,-0.0741 z"
         style="font-style:normal;font-variant:normal;font-weight:normal;font-stretch:normal;font-family:Corporate;-inkscape-font-specification:Corporate;stroke-width:0.26458332"
         id="path1453"
         inkscape:connector-curvature="0"
         sodipodi:nodetypes="ssscsscsscsczcscscc" />
    </g>
  </g>
</svg>
