<?xml version="1.0" encoding="UTF-8" standalone="no"?>
<svg
   xmlns:dc="http://purl.org/dc/elements/1.1/"
   xmlns:cc="http://creativecommons.org/ns#"
   xmlns:rdf="http://www.w3.org/1999/02/22-rdf-syntax-ns#"
   xmlns:svg="http://www.w3.org/2000/svg"
   xmlns="http://www.w3.org/2000/svg"
   xmlns:sodipodi="http://sodipodi.sourceforge.net/DTD/sodipodi-0.dtd"
   xmlns:inkscape="http://www.inkscape.org/namespaces/inkscape"
   inkscape:version="1.0 (4035a4fb49, 2020-05-01)"
   sodipodi:docname="2.svg"
   id="svg863"
   version="1.1"
   viewBox="0 0 2.0425832 7.6940832"
   height="7.6940832mm"
   width="2.0425832mm">
  <defs
     id="defs857">
    <inkscape:path-effect
       hide_knots="false"
       only_selected="false"
       apply_with_radius="true"
       apply_no_radius="true"
       use_knot_distance="true"
       flexible="false"
       chamfer_steps="1"
       radius="1"
       mode="F"
       method="auto"
       unit="px"
       satellites_param="F,0,0,1,0,0.26458333,0,1 @ F,0,0,1,0,0.26458333,0,1 @ F,0,0,1,0,0.26458333,0,1 @ F,0,0,1,0,0.26458333,0,1 @ F,0,0,1,0,0.26458333,0,1 @ F,0,0,1,0,0.26458333,0,1 @ F,0,0,1,0,0.26458333,0,1 @ F,0,0,1,0,0.26458333,0,1 @ F,0,0,1,0,0.26458333,0,1 @ F,0,0,1,0,0.26458333,0,1 @ F,0,0,1,0,0.26458333,0,1 @ F,0,0,1,0,0.26458333,0,1 @ F,0,0,1,0,0.26458333,0,1 @ F,0,0,1,0,0.26458333,0,1 @ F,0,0,1,0,0.26458333,0,1 @ F,0,0,1,0,0.26458333,0,1 @ F,0,0,1,0,0.26458333,0,1 @ F,0,0,1,0,0.26458333,0,1 @ F,0,0,1,0,0.26458333,0,1 @ F,0,0,1,0,0.26458333,0,1 @ F,0,0,1,0,0.26458333,0,1 @ F,0,0,1,0,0.26458333,0,1 @ F,0,0,1,0,0.26458333,0,1"
       lpeversion="1"
       is_visible="true"
       id="path-effect838"
       effect="fillet_chamfer" />
    <inkscape:path-effect
       hide_knots="false"
       only_selected="false"
       apply_with_radius="true"
       apply_no_radius="true"
       use_knot_distance="true"
       flexible="false"
       chamfer_steps="1"
       radius="1"
       mode="F"
       method="auto"
       unit="px"
       satellites_param="F,0,0,1,0,0,0,1 @ F,0,0,1,0,0.26458333,0,1 @ F,0,0,1,0,0,0,1"
       lpeversion="1"
       is_visible="true"
       id="path-effect836"
       effect="fillet_chamfer" />
    <inkscape:path-effect
       hide_knots="false"
       only_selected="false"
       apply_with_radius="false"
       apply_no_radius="false"
       use_knot_distance="false"
       flexible="false"
       chamfer_steps="1"
       radius="68"
       mode="F"
       method="arc"
       unit="mm"
       satellites_param="F,0,0,1,0,0,0,1 @ F,0,0,1,0,0,0,1 @ F,0,0,1,0,0,0,1 @ F,0,0,1,0,0,0,1 @ F,0,0,1,0,0,0,1 @ F,0,0,1,0,0,0,1 @ F,0,0,1,0,0,0,1 @ F,0,0,1,0,0,0,1 @ F,0,0,1,0,0,0,1 @ F,0,0,1,0,0,0,1 @ F,0,0,1,0,0,0,1 @ F,0,0,1,0,0,0,1 @ F,0,0,1,0,0,0,1 @ F,0,0,1,0,0,0,1 @ F,0,0,1,0,0,0,1 @ F,0,0,1,0,0,0,1 @ F,0,0,1,0,0,0,1 @ F,0,0,1,0,0,0,1 @ F,0,0,1,0,0,0,1 @ F,0,0,1,0,0,0,1 @ F,0,0,1,0,0,0,1 @ F,0,0,1,0,0,0,1 @ F,0,0,1,0,0,0,1"
       lpeversion="1"
       is_visible="true"
       id="path-effect832"
       effect="fillet_chamfer" />
  </defs>
  <sodipodi:namedview
     inkscape:document-rotation="0"
     fit-margin-bottom="0"
     fit-margin-right="0"
     fit-margin-left="0"
     fit-margin-top="0"
     inkscape:window-maximized="1"
     inkscape:window-y="22"
     inkscape:window-x="-8"
     inkscape:window-height="716"
     inkscape:window-width="1366"
     showgrid="false"
     inkscape:current-layer="layer1"
     inkscape:document-units="mm"
     inkscape:cy="13.44021"
     inkscape:cx="-2.7614681"
     inkscape:zoom="15.839192"
     inkscape:pageshadow="2"
     inkscape:pageopacity="0.0"
     borderopacity="1.0"
     bordercolor="#666666"
     pagecolor="#ffffff"
     id="base" />
  <metadata
     id="metadata860">
    <rdf:RDF>
      <cc:Work
         rdf:about="">
        <dc:format>image/svg+xml</dc:format>
        <dc:type
           rdf:resource="http://purl.org/dc/dcmitype/StillImage" />
        <dc:title />
      </cc:Work>
    </rdf:RDF>
  </metadata>
  <g
     transform="translate(-58.274455,-136.63377)"
     id="layer1"
     inkscape:groupmode="layer"
     inkscape:label="Ebene 1">
    <g
       id="text829"
       style="font-style:normal;font-weight:normal;font-size:10.58333302px;line-height:1.25;font-family:sans-serif;letter-spacing:0px;word-spacing:0px;fill:#000000;fill-opacity:1;stroke:none;stroke-width:0.26458332"
       aria-label="2">
      <path
         inkscape:original-d="m 58.274455,144.32785 v -0.84667 l 1.068917,-3.96875 0.105833,-0.34925 c 0.04233,-0.14817 0.0635,-0.24342 0.0635,-0.28575 v -1.24883 c 0,0 0.0051,-0.24065 -0.201083,-0.23283 -0.206217,0.008 -0.179917,0.24341 -0.179917,0.24341 v 1.61925 h -0.804333 v -1.86266 c 0,-0.27517 0.07408,-0.4692 0.22225,-0.58209 0.148167,-0.11994 0.409222,-0.17991 0.783167,-0.17991 0.366889,0 0.620888,0.0529 0.761999,0.15875 0.141111,0.10583 0.211667,0.28222 0.211667,0.52916 v 1.143 0.34925 0.0635 c -0.0071,0.0565 -0.01058,0.0953 -0.01058,0.11642 -0.0071,0.0635 -0.02116,0.13049 -0.04233,0.20108 l -1.195916,4.445 h 1.259416 v 0.68792 z"
         inkscape:path-effect="#path-effect838"
         sodipodi:nodetypes="ccccsczcccscscsccccccccc"
         inkscape:connector-curvature="0"
         id="path1429"
         style="font-style:normal;font-variant:normal;font-weight:normal;font-stretch:normal;font-family:Corporate;-inkscape-font-specification:Corporate;stroke-width:0.26458332"
         d="m 58.274455,144.06327 v -0.31751 a 1.9997339,1.9997339 97.536986 0 1 0.06881,-0.52006 l 0.931299,-3.45779 a 16.990002,16.990002 105.96616 0 1 0.14554,-0.50869 c 0.01607,-0.053 0.0723,-0.20836 0.09048,-0.35327 0.002,-0.0157 0.0021,-0.14698 0.0021,-0.2931 v -0.71967 c 0,-0.14612 0.0095,-0.43281 -0.118332,-0.48444 -0.0429,-0.0173 -0.237702,0.0196 -0.259382,0.15088 -0.0072,0.0434 -0.0033,0.19802 -0.0033,0.34414 v 1.09009 a 0.26458333,0.26458333 135 0 1 -0.264583,0.26458 h -0.275167 a 0.26458333,0.26458333 45 0 1 -0.264583,-0.26458 v -1.3335 c 0,-0.14612 -0.0062,-0.38536 0.02803,-0.52706 0.0096,-0.0397 0.02171,-0.0768 0.03627,-0.11113 0.05641,-0.13298 0.254573,-0.28335 0.393742,-0.32476 0.08137,-0.0242 0.175758,-0.0415 0.283155,-0.0519 0.145387,-0.0141 0.382997,-0.0139 0.528489,-9e-4 0.09691,0.009 0.182634,0.0226 0.257182,0.0418 0.140627,0.0362 0.34365,0.18096 0.39802,0.31463 0.0077,0.0189 0.01455,0.0386 0.0206,0.0591 0.04117,0.13969 0.03359,0.38 0.03359,0.52612 v 0.61384 0.52916 0.14817 c -0.01058,0.11642 -0.01058,0.11642 -0.01058,0.11642 -0.04233,0.20108 -0.04233,0.20108 -0.04233,0.20108 l -1.127175,4.1895 a 0.2028067,0.2028067 52.529348 0 0 0.195842,0.2555 h 0.73025 a 0.26458333,0.26458333 45 0 1 0.264583,0.26458 v 0.15876 a 0.26458333,0.26458333 135 0 1 -0.264583,0.26458 l -1.513424,0 a 0.26458333,0.26458333 45 0 1 -0.264583,-0.26458 z" />
    </g>
  </g>
</svg>
