<?xml version="1.0" encoding="UTF-8" standalone="no"?>
<svg
   xmlns:dc="http://purl.org/dc/elements/1.1/"
   xmlns:cc="http://creativecommons.org/ns#"
   xmlns:rdf="http://www.w3.org/1999/02/22-rdf-syntax-ns#"
   xmlns:svg="http://www.w3.org/2000/svg"
   xmlns="http://www.w3.org/2000/svg"
   xmlns:sodipodi="http://sodipodi.sourceforge.net/DTD/sodipodi-0.dtd"
   xmlns:inkscape="http://www.inkscape.org/namespaces/inkscape"
   inkscape:version="1.0 (4035a4fb49, 2020-05-01)"
   sodipodi:docname="3.svg"
   id="svg863"
   version="1.1"
   viewBox="0 0 1.9790833 7.7681666"
   height="7.7681665mm"
   width="1.9790833mm">
  <defs
     id="defs857">
    <inkscape:path-effect
       hide_knots="false"
       only_selected="true"
       apply_with_radius="true"
       apply_no_radius="true"
       use_knot_distance="true"
       flexible="false"
       chamfer_steps="1"
       radius="1"
       mode="F"
       method="auto"
       unit="px"
       satellites_param="F,0,0,1,0,0,0,1 @ F,0,1,1,0,0.26458333,0,1 @ F,0,1,1,0,0.26458333,0,1 @ F,0,0,1,0,0,0,1 @ F,0,0,1,0,0,0,1 @ F,0,0,1,0,0,0,1 @ F,0,0,1,0,0,0,1 @ F,0,0,1,0,0,0,1 @ F,0,0,1,0,0,0,1 @ F,0,1,1,0,0.26458333,0,1 @ F,0,1,1,0,0.26458333,0,1 @ F,0,0,1,0,0,0,1 @ F,0,0,1,0,0,0,1 @ F,0,0,1,0,0,0,1 @ F,0,0,1,0,0,0,1 @ F,0,0,1,0,0,0,1 @ F,0,0,1,0,0,0,1 @ F,0,1,1,0,0.26458333,0,1 @ F,0,1,1,0,0.26458333,0,1 @ F,0,0,1,0,0,0,1 @ F,0,0,1,0,0,0,1 @ F,0,0,1,0,0,0,1 @ F,0,0,1,0,0,0,1 @ F,0,0,1,0,0,0,1 @ F,0,0,1,0,0,0,1 @ F,0,0,1,0,0,0,1 @ F,0,0,1,0,0,0,1 @ F,0,0,1,0,0,0,1 @ F,0,0,1,0,0,0,1 @ F,0,0,1,0,0,0,1 @ F,0,0,1,0,0,0,1 @ F,0,0,1,0,0,0,1"
       lpeversion="1"
       is_visible="true"
       id="path-effect834"
       effect="fillet_chamfer" />
    <inkscape:path-effect
       hide_knots="false"
       only_selected="false"
       apply_with_radius="true"
       apply_no_radius="true"
       use_knot_distance="true"
       flexible="false"
       chamfer_steps="1"
       radius="0"
       mode="F"
       method="auto"
       unit="px"
       satellites_param="F,0,0,1,0,0,0,1 @ F,0,0,1,0,0,0,1 @ F,0,0,1,0,0,0,1 @ F,0,0,1,0,0,0,1 @ F,0,0,1,0,0,0,1 @ F,0,0,1,0,0,0,1 @ F,0,0,1,0,0,0,1 @ F,0,0,1,0,0,0,1 @ F,0,0,1,0,0,0,1 @ F,0,0,1,0,0,0,1 @ F,0,0,1,0,0,0,1 @ F,0,0,1,0,0,0,1 @ F,0,0,1,0,0,0,1 @ F,0,0,1,0,0,0,1 @ F,0,0,1,0,0,0,1 @ F,0,0,1,0,0,0,1 @ F,0,0,1,0,0,0,1 @ F,0,0,1,0,0,0,1 @ F,0,0,1,0,0,0,1 @ F,0,0,1,0,0,0,1 @ F,0,0,1,0,0,0,1 @ F,0,0,1,0,0,0,1 @ F,0,0,1,0,0,0,1 @ F,0,0,1,0,0,0,1 @ F,0,0,1,0,0,0,1 @ F,0,0,1,0,0,0,1 @ F,0,0,1,0,0,0,1 @ F,0,0,1,0,0,0,1 @ F,0,0,1,0,0,0,1 @ F,0,0,1,0,0,0,1 @ F,0,0,1,0,0,0,1 @ F,0,0,1,0,0,0,1"
       lpeversion="1"
       is_visible="true"
       id="path-effect832"
       effect="fillet_chamfer" />
  </defs>
  <sodipodi:namedview
     inkscape:document-rotation="0"
     fit-margin-bottom="0"
     fit-margin-right="0"
     fit-margin-left="0"
     fit-margin-top="0"
     inkscape:window-maximized="1"
     inkscape:window-y="22"
     inkscape:window-x="-8"
     inkscape:window-height="716"
     inkscape:window-width="1366"
     showgrid="false"
     inkscape:current-layer="layer1"
     inkscape:document-units="mm"
     inkscape:cy="15.0139"
     inkscape:cx="1.8581755"
     inkscape:zoom="15.839192"
     inkscape:pageshadow="2"
     inkscape:pageopacity="0.0"
     borderopacity="1.0"
     bordercolor="#666666"
     pagecolor="#ffffff"
     id="base" />
  <metadata
     id="metadata860">
    <rdf:RDF>
      <cc:Work
         rdf:about="">
        <dc:format>image/svg+xml</dc:format>
        <dc:type
           rdf:resource="http://purl.org/dc/dcmitype/StillImage" />
        <dc:title />
      </cc:Work>
    </rdf:RDF>
  </metadata>
  <g
     transform="translate(-58.306205,-136.63377)"
     id="layer1"
     inkscape:groupmode="layer"
     inkscape:label="Ebene 1">
    <g
       id="text829"
       style="font-style:normal;font-weight:normal;font-size:10.58333302px;line-height:1.25;font-family:sans-serif;letter-spacing:0px;word-spacing:0px;fill:#000000;fill-opacity:1;stroke:none;stroke-width:0.26458332"
       aria-label="3">
      <path
         inkscape:original-d="m 58.306205,143.71402 v -2.52942 h 0.804334 v 2.2225 c 0,0 -0.02533,0.24342 0.169333,0.24342 0.194658,0 0.211667,-0.254 0.211667,-0.254 v -2.38125 c 0,-0.16933 -0.01764,-0.2787 -0.05292,-0.32809 -0.03528,-0.0565 -0.112891,-0.0847 -0.232833,-0.0847 h -0.433917 v -0.6985 h 0.423333 c 0.112889,0 0.190501,-0.0282 0.232834,-0.0847 0.04233,-0.0635 0.0635,-0.17988 0.0635,-0.34925 v -1.74625 c 0,0 0.0016,-0.32677 -0.169334,-0.32808 -0.178875,-0.001 -0.211666,0.28575 -0.211666,0.28575 v 1.55575 h -0.804334 v -1.91559 c 0,-0.45861 0.328083,-0.68791 0.98425,-0.68791 0.416278,0 0.684389,0.0459 0.804333,0.13758 0.127,0.0847 0.1905,0.26811 0.1905,0.55033 v 1.93675 c 0,0.635 -0.239889,0.98072 -0.719666,1.03717 0.07761,0 0.151695,0.0176 0.22225,0.0529 0.07761,0.0353 0.148166,0.0846 0.211666,0.14816 0.1905,0.1905 0.28575,0.381 0.28575,0.5715 v 2.64584 c 0,0.254 -0.07408,0.43392 -0.22225,0.53975 -0.141111,0.0988 -0.402166,0.14816 -0.783166,0.14816 -0.649111,0 -0.973667,-0.2293 -0.973667,-0.68791 z"
         inkscape:path-effect="#path-effect834"
         sodipodi:nodetypes="cccczcscsccscscscccsscsscccsscscc"
         id="path1432"
         style="font-style:normal;font-variant:normal;font-weight:normal;font-stretch:normal;font-family:Corporate;-inkscape-font-specification:Corporate;stroke-width:0.264583"
         d="m 58.306205,143.71402 v -2.26484 a 0.26458333,0.26458333 135 0 1 0.264583,-0.26458 h 0.275168 a 0.26458333,0.26458333 45 0 1 0.264583,0.26458 v 1.95792 c 0,0 -0.02533,0.24342 0.169333,0.24342 0.194658,0 0.211667,-0.254 0.211667,-0.254 v -2.38125 c 0,-0.16933 -0.01764,-0.2787 -0.05292,-0.32809 -0.03528,-0.0565 -0.112891,-0.0847 -0.232833,-0.0847 h -0.169334 a 0.26458333,0.26458333 45 0 1 -0.264583,-0.26458 v -0.16934 a 0.26458333,0.26458333 135 0 1 0.264583,-0.26458 h 0.15875 c 0.112889,0 0.190501,-0.0282 0.232834,-0.0847 0.04233,-0.0635 0.0635,-0.17988 0.0635,-0.34925 v -1.74625 c 0,0 0.0016,-0.32677 -0.169334,-0.32808 -0.178875,-0.001 -0.211666,0.28575 -0.211666,0.28575 v 1.29117 a 0.26458333,0.26458333 135 0 1 -0.264583,0.26458 h -0.275168 a 0.26458333,0.26458333 45 0 1 -0.264583,-0.26458 l 0,-1.65101 c 0,-0.45861 0.328083,-0.68791 0.98425,-0.68791 0.416278,0 0.684389,0.0459 0.804333,0.13758 0.127,0.0847 0.1905,0.26811 0.1905,0.55033 v 1.93675 c 0,0.635 -0.239889,0.98072 -0.719666,1.03717 0.07761,0 0.151695,0.0176 0.22225,0.0529 0.07761,0.0353 0.148166,0.0846 0.211666,0.14816 0.1905,0.1905 0.28575,0.381 0.28575,0.5715 v 2.64584 c 0,0.254 -0.07408,0.43392 -0.22225,0.53975 -0.141111,0.0988 -0.402166,0.14816 -0.783166,0.14816 -0.649111,0 -0.973667,-0.2293 -0.973667,-0.68791 z" />
    </g>
  </g>
</svg>
