<?xml version="1.0" encoding="UTF-8" standalone="no"?>
<svg
   xmlns:dc="http://purl.org/dc/elements/1.1/"
   xmlns:cc="http://creativecommons.org/ns#"
   xmlns:rdf="http://www.w3.org/1999/02/22-rdf-syntax-ns#"
   xmlns:svg="http://www.w3.org/2000/svg"
   xmlns="http://www.w3.org/2000/svg"
   xmlns:sodipodi="http://sodipodi.sourceforge.net/DTD/sodipodi-0.dtd"
   xmlns:inkscape="http://www.inkscape.org/namespaces/inkscape"
   inkscape:version="1.0 (4035a4fb49, 2020-05-01)"
   sodipodi:docname="4.svg"
   id="svg863"
   version="1.1"
   viewBox="0 0 2.25425 7.6199999"
   height="7.6199999mm"
   width="2.25425mm">
  <defs
     id="defs857">
    <inkscape:path-effect
       hide_knots="false"
       only_selected="false"
       apply_with_radius="true"
       apply_no_radius="true"
       use_knot_distance="true"
       flexible="false"
       chamfer_steps="1"
       radius="0.5"
       mode="F"
       method="auto"
       unit="px"
       satellites_param="F,0,0,1,0,0.13229167,0,1 @ F,0,0,1,0,0.13229167,0,1 @ F,0,0,1,0,0.13229167,0,1 @ F,0,0,1,0,0.13229167,0,1 @ F,0,0,1,0,0.13229167,0,1 @ F,0,0,1,0,0.13229167,0,1 @ F,0,0,1,0,0.13229167,0,1 @ F,0,0,1,0,0.13229167,0,1 @ F,0,0,1,0,0.13229167,0,1 @ F,0,0,1,0,0.13229167,0,1 @ F,0,0,1,0,0.13229167,0,1 | F,0,0,1,0,0.13229167,0,1 @ F,0,0,1,0,0.13229167,0,1 @ F,0,0,1,0,0.13229167,0,1"
       lpeversion="1"
       is_visible="true"
       id="path-effect832"
       effect="fillet_chamfer" />
  </defs>
  <sodipodi:namedview
     inkscape:document-rotation="0"
     fit-margin-bottom="0"
     fit-margin-right="0"
     fit-margin-left="0"
     fit-margin-top="0"
     inkscape:window-maximized="1"
     inkscape:window-y="22"
     inkscape:window-x="-8"
     inkscape:window-height="716"
     inkscape:window-width="1366"
     showgrid="false"
     inkscape:current-layer="layer1"
     inkscape:document-units="mm"
     inkscape:cy="17.11347"
     inkscape:cx="2.2231233"
     inkscape:zoom="11.2"
     inkscape:pageshadow="2"
     inkscape:pageopacity="0.0"
     borderopacity="1.0"
     bordercolor="#666666"
     pagecolor="#ffffff"
     id="base" />
  <metadata
     id="metadata860">
    <rdf:RDF>
      <cc:Work
         rdf:about="">
        <dc:format>image/svg+xml</dc:format>
        <dc:type
           rdf:resource="http://purl.org/dc/dcmitype/StillImage" />
        <dc:title />
      </cc:Work>
    </rdf:RDF>
  </metadata>
  <g
     transform="translate(-58.073372,-136.70785)"
     id="layer1"
     inkscape:groupmode="layer"
     inkscape:label="Ebene 1">
    <g
       id="text829"
       style="font-style:normal;font-weight:normal;font-size:10.58333302px;line-height:1.25;font-family:sans-serif;letter-spacing:0px;word-spacing:0px;fill:#000000;fill-opacity:1;stroke:none;stroke-width:0.26458332"
       aria-label="4">
      <path
         inkscape:original-d="m 58.073372,143.03668 v -0.68791 l 1.04775,-5.64092 h 1.016 v 5.64092 h 0.1905 v 0.68791 h -0.1905 v 1.29117 h -0.79375 v -1.29117 z m 1.27,-4.2545 -0.53975,3.56659 h 0.53975 z"
         inkscape:path-effect="#path-effect832"
         id="path1435"
         style="font-style:normal;font-variant:normal;font-weight:normal;font-stretch:normal;font-family:Corporate;-inkscape-font-specification:Corporate;stroke-width:0.26458332"
         d="m 58.073372,142.90439 v -0.42333 a 1.4366566,1.4366566 95.261131 0 1 0.02416,-0.26236 l 0.999432,-5.38078 a 0.15912632,0.15912632 140.26113 0 1 0.156451,-0.13007 h 0.751416 a 0.13229167,0.13229167 45 0 1 0.132292,0.13229 v 5.37634 a 0.13229167,0.13229167 45 0 0 0.132292,0.13229 0.10219906,0.10219906 66.250507 0 1 0.05821,0.13229 l 0,0.42333 a 0.13229167,0.13229167 135 0 1 -0.132292,0.13229 0.10219906,0.10219906 113.74949 0 0 -0.05821,0.13229 v 1.02659 a 0.13229167,0.13229167 135 0 1 -0.132292,0.13229 h -0.529166 a 0.13229167,0.13229167 45 0 1 -0.132292,-0.13229 v -1.02659 a 0.13229167,0.13229167 45 0 0 -0.132292,-0.13229 h -1.005416 a 0.13229167,0.13229167 45 0 1 -0.132292,-0.13229 z m 1.250205,-3.99141 -0.50016,3.30499 a 0.11377762,0.11377762 49.30278 0 0 0.112497,0.1308 h 0.275166 a 0.13229167,0.13229167 135 0 0 0.132292,-0.13229 v -3.30201 a 0.00995351,0.00995351 4.3027796 0 0 -0.0198,-0.001 z" />
    </g>
  </g>
</svg>
