<?xml version="1.0" encoding="UTF-8" standalone="no"?>
<svg
   xmlns:dc="http://purl.org/dc/elements/1.1/"
   xmlns:cc="http://creativecommons.org/ns#"
   xmlns:rdf="http://www.w3.org/1999/02/22-rdf-syntax-ns#"
   xmlns:svg="http://www.w3.org/2000/svg"
   xmlns="http://www.w3.org/2000/svg"
   xmlns:sodipodi="http://sodipodi.sourceforge.net/DTD/sodipodi-0.dtd"
   xmlns:inkscape="http://www.inkscape.org/namespaces/inkscape"
   inkscape:version="1.0 (4035a4fb49, 2020-05-01)"
   sodipodi:docname="5.svg"
   id="svg863"
   version="1.1"
   viewBox="0 0 2.0214166 7.6834998"
   height="7.6834998mm"
   width="2.0214167mm">
  <defs
     id="defs857">
    <inkscape:path-effect
       hide_knots="false"
       only_selected="true"
       apply_with_radius="true"
       apply_no_radius="true"
       use_knot_distance="true"
       flexible="false"
       chamfer_steps="1"
       radius="0.5"
       mode="F"
       method="auto"
       unit="px"
       satellites_param="F,0,0,1,0,0,0,1 @ F,0,1,1,0,0.13229167,0,1 @ F,0,1,1,0,0.13229167,0,1 @ F,0,0,1,0,0,0,1 @ F,0,0,1,0,0,0,1 @ F,0,0,1,0,0,0,1 @ F,0,0,1,0,0,0,1 @ F,0,0,1,0,0,0,1 @ F,0,0,1,0,0,0,1 @ F,0,1,1,0,0.13229167,0,1 @ F,0,1,1,0,0.13229167,0,1 @ F,0,1,1,0,0.13229167,0,1 @ F,0,1,1,0,0.13229167,0,1 @ F,0,1,1,0,0.13229167,0,1 @ F,0,1,1,0,0.13229167,0,1 @ F,0,0,1,0,0,0,1 @ F,0,0,1,0,0,0,1 @ F,0,0,1,0,0,0,1 @ F,0,0,1,0,0,0,1 @ F,0,0,1,0,0,0,1 @ F,0,0,1,0,0,0,1 @ F,0,0,1,0,0,0,1 @ F,0,0,1,0,0,0,1 @ F,0,0,1,0,0,0,1"
       lpeversion="1"
       is_visible="true"
       id="path-effect832"
       effect="fillet_chamfer" />
  </defs>
  <sodipodi:namedview
     inkscape:document-rotation="0"
     fit-margin-bottom="0"
     fit-margin-right="0"
     fit-margin-left="0"
     fit-margin-top="0"
     inkscape:window-maximized="1"
     inkscape:window-y="22"
     inkscape:window-x="-8"
     inkscape:window-height="716"
     inkscape:window-width="1366"
     showgrid="false"
     inkscape:current-layer="layer1"
     inkscape:document-units="mm"
     inkscape:cy="11.308648"
     inkscape:cx="4.9800519"
     inkscape:zoom="22.4"
     inkscape:pageshadow="2"
     inkscape:pageopacity="0.0"
     borderopacity="1.0"
     bordercolor="#666666"
     pagecolor="#ffffff"
     id="base" />
  <metadata
     id="metadata860">
    <rdf:RDF>
      <cc:Work
         rdf:about="">
        <dc:format>image/svg+xml</dc:format>
        <dc:type
           rdf:resource="http://purl.org/dc/dcmitype/StillImage" />
        <dc:title />
      </cc:Work>
    </rdf:RDF>
  </metadata>
  <g
     transform="translate(-58.285039,-136.70785)"
     id="layer1"
     inkscape:groupmode="layer"
     inkscape:label="Ebene 1">
    <g
       id="text829"
       style="font-style:normal;font-weight:normal;font-size:10.58333302px;line-height:1.25;font-family:sans-serif;letter-spacing:0px;word-spacing:0px;fill:#000000;fill-opacity:1;stroke:none;stroke-width:0.26458332"
       aria-label="5">
      <path
         inkscape:original-d="m 58.285039,143.71402 v -2.42359 h 0.804333 v 2.21192 c 0,0 -0.0016,0.22225 0.1905,0.22225 0.192068,0 0.1905,-0.22225 0.1905,-0.22225 v -3.25967 c 0,0 -0.01162,-0.254 -0.201083,-0.254 -0.189458,0 -0.169334,0.22225 -0.169334,0.22225 v 0.508 h -0.814916 v -4.01108 h 2.021416 v 0.68792 h -1.217083 v 2.00025 c 0.09172,-0.127 0.197555,-0.20461 0.3175,-0.23284 0.119945,-0.0353 0.215195,-0.0529 0.28575,-0.0529 0.381,0 0.5715,0.22578 0.5715,0.67733 v 3.92642 c 0,0.19755 -0.05292,0.35983 -0.15875,0.48683 -0.105833,0.127 -0.254,0.1905 -0.4445,0.1905 -0.543278,0 -0.910167,-0.0423 -1.100667,-0.127 -0.183444,-0.0917 -0.275166,-0.27516 -0.275166,-0.55033 z"
         inkscape:path-effect="#path-effect832"
         sodipodi:nodetypes="cccczcczcccccccccssssscsc"
         id="path1438"
         style="font-style:normal;font-variant:normal;font-weight:normal;font-stretch:normal;font-family:Corporate;-inkscape-font-specification:Corporate;stroke-width:0.264583"
         d="m 58.285039,143.71402 v -2.2913 a 0.13229167,0.13229167 135 0 1 0.132292,-0.13229 h 0.539749 a 0.13229167,0.13229167 45 0 1 0.132292,0.13229 v 2.07963 c 0,0 -0.0016,0.22225 0.1905,0.22225 0.192068,0 0.1905,-0.22225 0.1905,-0.22225 v -3.25967 c 0,0 -0.01162,-0.254 -0.201083,-0.254 -0.189458,0 -0.169334,0.22225 -0.169334,0.22225 v 0.37571 a 0.13229167,0.13229167 135 0 1 -0.132292,0.13229 h -0.550332 a 0.13229167,0.13229167 45 0 1 -0.132292,-0.13229 v -3.7465 a 0.13229167,0.13229167 135 0 1 0.132292,-0.13229 h 1.756832 a 0.13229167,0.13229167 45 0 1 0.132292,0.13229 v 0.42334 a 0.13229167,0.13229167 135 0 1 -0.132292,0.13229 h -0.952499 a 0.13229167,0.13229167 135 0 0 -0.132292,0.13229 v 1.86796 c 0.09172,-0.127 0.197555,-0.20461 0.3175,-0.23284 0.119945,-0.0353 0.215195,-0.0529 0.28575,-0.0529 0.381,0 0.5715,0.22578 0.5715,0.67733 v 3.92642 c 0,0.19755 -0.05292,0.35983 -0.15875,0.48683 -0.105833,0.127 -0.254,0.1905 -0.4445,0.1905 -0.543278,0 -0.910167,-0.0423 -1.100667,-0.127 -0.183444,-0.0917 -0.275166,-0.27516 -0.275166,-0.55033 z" />
    </g>
  </g>
</svg>
