<?xml version="1.0" encoding="UTF-8" standalone="no"?>
<svg
   xmlns:dc="http://purl.org/dc/elements/1.1/"
   xmlns:cc="http://creativecommons.org/ns#"
   xmlns:rdf="http://www.w3.org/1999/02/22-rdf-syntax-ns#"
   xmlns:svg="http://www.w3.org/2000/svg"
   xmlns="http://www.w3.org/2000/svg"
   xmlns:sodipodi="http://sodipodi.sourceforge.net/DTD/sodipodi-0.dtd"
   xmlns:inkscape="http://www.inkscape.org/namespaces/inkscape"
   sodipodi:docname="edit_template.svg"
   inkscape:version="1.0 (4035a4fb49, 2020-05-01)"
   style="enable-background:new"
   id="svg8"
   version="1.1"
   viewBox="0 0 48.315941 48.315941"
   height="48.315941mm"
   width="48.315941mm">
  <defs
     id="defs2">
    <marker
       inkscape:isstock="true"
       style="overflow:visible"
       id="TriangleInL"
       refX="0.0"
       refY="0.0"
       orient="auto"
       inkscape:stockid="TriangleInL">
      <path
         transform="scale(-0.8)"
         style="fill-rule:evenodd;stroke:#000000;stroke-width:1pt;stroke-opacity:1;fill:#000000;fill-opacity:1"
         d="M 5.77,0.0 L -2.88,5.0 L -2.88,-5.0 L 5.77,0.0 z "
         id="path1106" />
    </marker>
    <marker
       inkscape:isstock="true"
       style="overflow:visible"
       id="TriangleOutL"
       refX="0.0"
       refY="0.0"
       orient="auto"
       inkscape:stockid="TriangleOutL">
      <path
         transform="scale(0.8)"
         style="fill-rule:evenodd;stroke:#000000;stroke-width:1pt;stroke-opacity:1;fill:#000000;fill-opacity:1"
         d="M 5.77,0.0 L -2.88,5.0 L -2.88,-5.0 L 5.77,0.0 z "
         id="path1115" />
    </marker>
    <marker
       inkscape:isstock="true"
       style="overflow:visible;"
       id="Arrow2Mend"
       refX="0.0"
       refY="0.0"
       orient="auto"
       inkscape:stockid="Arrow2Mend">
      <path
         transform="scale(0.6) rotate(180) translate(0,0)"
         d="M 8.7185878,4.0337352 L -2.2072895,0.016013256 L 8.7185884,-4.0017078 C 6.9730900,-1.6296469 6.9831476,1.6157441 8.7185878,4.0337352 z "
         style="fill-rule:evenodd;stroke-width:0.625;stroke-linejoin:round;stroke:#000000;stroke-opacity:1;fill:#000000;fill-opacity:1"
         id="path1000" />
    </marker>
    <marker
       inkscape:isstock="true"
       style="overflow:visible;"
       id="Arrow1Lend"
       refX="0.0"
       refY="0.0"
       orient="auto"
       inkscape:stockid="Arrow1Lend">
      <path
         transform="scale(0.8) rotate(180) translate(12.5,0)"
         style="fill-rule:evenodd;stroke:#000000;stroke-width:1pt;stroke-opacity:1;fill:#000000;fill-opacity:1"
         d="M 0.0,0.0 L 5.0,-5.0 L -12.5,0.0 L 5.0,5.0 L 0.0,0.0 z "
         id="path976" />
    </marker>
    <marker
       inkscape:isstock="true"
       style="overflow:visible"
       id="Arrow1Lstart"
       refX="0.0"
       refY="0.0"
       orient="auto"
       inkscape:stockid="Arrow1Lstart">
      <path
         transform="scale(0.8) translate(12.5,0)"
         style="fill-rule:evenodd;stroke:#000000;stroke-width:1pt;stroke-opacity:1;fill:#000000;fill-opacity:1"
         d="M 0.0,0.0 L 5.0,-5.0 L -12.5,0.0 L 5.0,5.0 L 0.0,0.0 z "
         id="path973" />
    </marker>
    <filter
       id="filter919"
       style="color-interpolation-filters:sRGB"
       inkscape:collect="always">
      <feBlend
         id="feBlend921"
         in2="BackgroundImage"
         mode="multiply"
         inkscape:collect="always" />
    </filter>
    <marker
       inkscape:isstock="true"
       style="overflow:visible"
       id="TriangleInL-0"
       refX="0"
       refY="0"
       orient="auto"
       inkscape:stockid="TriangleInL">
      <path
         transform="scale(-0.8)"
         style="fill:#000000;fill-opacity:1;fill-rule:evenodd;stroke:#000000;stroke-width:1.00000003pt;stroke-opacity:1"
         d="M 5.77,0 -2.88,5 V -5 Z"
         id="path1106-1"
         inkscape:connector-curvature="0" />
    </marker>
    <marker
       inkscape:isstock="true"
       style="overflow:visible"
       id="TriangleOutL-2"
       refX="0"
       refY="0"
       orient="auto"
       inkscape:stockid="TriangleOutL">
      <path
         transform="scale(0.8)"
         style="fill:#000000;fill-opacity:1;fill-rule:evenodd;stroke:#000000;stroke-width:1.00000003pt;stroke-opacity:1"
         d="M 5.77,0 -2.88,5 V -5 Z"
         id="path1115-5"
         inkscape:connector-curvature="0" />
    </marker>
  </defs>
  <sodipodi:namedview
     inkscape:lockguides="true"
     inkscape:document-rotation="0"
     inkscape:snap-object-midpoints="true"
     inkscape:snap-center="true"
     inkscape:snap-bbox-midpoints="true"
     inkscape:snap-bbox="true"
     inkscape:window-maximized="1"
     inkscape:window-y="22"
     inkscape:window-x="-8"
     inkscape:window-height="716"
     inkscape:window-width="1366"
     inkscape:snap-global="false"
     fit-margin-bottom="0"
     fit-margin-right="0"
     fit-margin-left="0"
     fit-margin-top="0"
     showgrid="false"
     inkscape:current-layer="layer1"
     inkscape:document-units="mm"
     inkscape:cy="107.23699"
     inkscape:cx="112.52978"
     inkscape:zoom="1.979899"
     inkscape:pageshadow="2"
     inkscape:pageopacity="0.0"
     borderopacity="1.0"
     bordercolor="#666666"
     pagecolor="#ffffff"
     id="base" />
  <metadata
     id="metadata5">
    <rdf:RDF>
      <cc:Work
         rdf:about="">
        <dc:format>image/svg+xml</dc:format>
        <dc:type
           rdf:resource="http://purl.org/dc/dcmitype/StillImage" />
        <dc:title />
      </cc:Work>
    </rdf:RDF>
  </metadata>
  <g
     transform="translate(-3.5563138,-3.5563144)"
     style="display:none"
     inkscape:label="background"
     id="layer2"
     inkscape:groupmode="layer">
    <g
       id="g927"
       style="stroke-width:1.35182;filter:url(#filter919)"
       transform="matrix(0.73974541,0,0,0.73974541,3.1089445,2.0565687)">
      <rect
         style="opacity:1;fill:#ff45ff;fill-opacity:1;stroke:#020000;stroke-width:1.35182;stroke-linecap:square;stroke-linejoin:miter;stroke-miterlimit:4;stroke-dasharray:1.35182, 5.40727;stroke-dashoffset:0.2;stroke-opacity:1;paint-order:markers stroke fill"
         id="rect815"
         width="54.42857"
         height="54.42857"
         x="6.0476184"
         y="7.4702382" />
    </g>
  </g>
  <g
     inkscape:label="ebene"
     id="layer4"
     inkscape:groupmode="layer">
    <g
       id="g1500">
      <rect
         style="opacity:1;fill:#f3ffff;fill-opacity:0.81911262;stroke:#000000;stroke-width:1;stroke-linecap:square;stroke-linejoin:miter;stroke-miterlimit:4;stroke-dasharray:none;stroke-dashoffset:2.85696626;stroke-opacity:1;paint-order:markers stroke fill"
         id="rect954"
         width="24.054256"
         height="31.404167"
         x="7.3499117"
         y="7.0228"
         ry="2.9399648"
         rx="2.9399648" />
      <path
         style="fill:none;stroke:#000000;stroke-width:0.26458332px;stroke-linecap:butt;stroke-linejoin:miter;stroke-opacity:1;marker-start:url(#TriangleInL);marker-end:url(#TriangleOutL)"
         d="M 9.3076637,9.7151234 V 19.967728 H 28.442708"
         id="path971"
         inkscape:connector-curvature="0" />
      <path
         style="fill:none;stroke:#000000;stroke-width:0.26458332px;stroke-linecap:round;stroke-linejoin:miter;stroke-opacity:1"
         d="m 9.3785341,16.967541 4.2522329,0.02362 4.890066,-5.244419 h 9.35491"
         id="path1453"
         inkscape:connector-curvature="0"
         sodipodi:nodetypes="cccc" />
      <path
         style="fill:none;stroke:#000000;stroke-width:2;stroke-linecap:round;stroke-linejoin:miter;stroke-miterlimit:4;stroke-dasharray:none;stroke-opacity:1"
         d="M 10.022607,26.533476 H 28.063301"
         id="path1455"
         inkscape:connector-curvature="0" />
      <path
         style="fill:none;stroke:#000000;stroke-width:2;stroke-linecap:round;stroke-linejoin:miter;stroke-miterlimit:4;stroke-dasharray:none;stroke-opacity:1;enable-background:new"
         d="M 10.089424,30.542517 H 28.130119"
         id="path1455-7"
         inkscape:connector-curvature="0" />
      <path
         style="fill:none;stroke:#000000;stroke-width:2;stroke-linecap:round;stroke-linejoin:miter;stroke-miterlimit:4;stroke-dasharray:none;stroke-opacity:1;enable-background:new"
         d="m 10.186384,34.417926 h 9.160515"
         id="path1455-70"
         inkscape:connector-curvature="0" />
      <path
         style="fill:none;stroke:#000000;stroke-width:2;stroke-linecap:round;stroke-linejoin:miter;stroke-miterlimit:4;stroke-dasharray:none;stroke-opacity:1;enable-background:new"
         d="m 25.137238,34.351109 h 2.978977"
         id="path1455-70-2"
         inkscape:connector-curvature="0" />
    </g>
  </g>
  <g
     style="display:inline"
     inkscape:label="pen"
     id="layer1"
     inkscape:groupmode="layer">
    <g
       transform="rotate(37.500277,59.35427,-22.756455)"
       id="g986">
      <g
         id="g941">
        <path
           id="path933"
           d="m 64.590022,46.865788 1.821661,-6.395744 -0.06744,-26.202469 -0.04492,-0.567542 -0.345653,-0.26211 c -1.280144,-0.234656 -0.812577,-0.166988 -1.980135,-0.338378 l -0.714449,0.216246 -0.430227,0.331618 c 0,0 -0.368002,0.207729 -0.159726,0.403456 0.208274,0.195727 0.06672,0.285376 0.06672,0.285376 l -0.05602,26.015439 z"
           style="display:inline;fill:#ffffff;fill-opacity:1;stroke:none;stroke-width:0.264583px;stroke-linecap:butt;stroke-linejoin:miter;stroke-opacity:1;enable-background:new"
           sodipodi:nodetypes="cccccccczccc" />
        <path
           d="m 65.458835,43.360452 -0.23422,0.802314 0.09479,0.02736 -2.4e-5,9.9e-5 -0.09766,-0.0282 0.339753,-1.337585 c -0.160291,-7.98e-4 -0.339021,0.156209 -0.412419,0.242066 l 0.294947,-2.647925 c -0.05998,-0.186412 0.411403,-0.78198 0.514376,-0.914624 0.07955,-0.09019 0.325852,-0.36514 0.343681,-0.106679 z m -0.818244,2.858653 0.512921,-2.979845 c 0.08758,-0.09705 0.3132,-0.331621 0.356198,-0.248531 z m 0.32812,-3.029155 c -0.179316,-0.257759 -0.700123,-0.298092 -0.878005,0.07852 l -0.389126,-2.694387 -0.0025,-0.01015 c -0.0029,-0.008 -0.0063,-0.01526 -0.0093,-0.02302 0.01572,-0.272826 0.294166,-0.559691 0.626177,-0.642199 0.220715,-0.0551 0.639817,-0.06007 0.977474,0.510808 0.0015,0.0029 0.0034,0.0057 0.005,0.0083 l -0.32686,2.772765 -0.07118,0.584478 z M 63.642126,43.3521 62.79162,39.313813 c 0.09175,0.117004 0.308848,0.461266 0.403626,0.583726 0.09478,0.12246 0.325779,0.479367 0.406343,0.696234 l 0.3713,2.587159 c -0.141335,-0.165546 -0.347226,-0.381799 -0.42263,-0.271489 m 1.67551,-2.771445 c -0.257262,-0.301902 -0.587201,-0.424278 -0.934256,-0.338092 -0.232721,0.05784 -0.442061,0.208056 -0.57089,0.389109 0.258036,-0.699443 1.170939,-0.810886 1.505148,-0.05101 m 1.166689,-0.759357 c 7.07e-4,-0.02114 6.19e-4,-0.04233 -5.93e-4,-0.06295 l 1.1e-5,0.06126 -2.65e-4,-0.0012 c -0.08267,-0.395107 -0.382674,-0.0698 -0.464113,0.02085 -0.18779,0.219256 -0.454756,0.669155 -0.550281,0.809549 0.264536,-0.774989 0.982228,-1.469689 1.014653,-0.890483 l -0.02935,-25.018797 c -0.262161,0.262161 -0.528911,0.332763 -0.910294,0.418312 l -0.08996,25.513797 c -0.0107,0.01703 -0.02084,0.03425 -0.0292,0.05159 -0.02487,-0.0371 -0.05076,-0.07177 -0.07727,-0.105044 L 65.233518,14.76494 c -0.452246,0.0658 -0.916503,0.05354 -1.333741,-0.02428 l -0.245976,25.559322 c -0.01522,0.03069 -0.02756,0.06166 -0.03758,0.0929 -0.02558,-0.04007 -0.05284,-0.07423 -0.08079,-0.10379 l 0.165798,-25.58573 c -0.42604,-0.07235 -0.638832,-0.125947 -0.965378,-0.449806 0,0 -0.07747,23.626397 -0.04443,24.943019 0.103986,-0.330987 0.588892,0.617617 0.788109,1.040444 -0.09431,-0.19721 -0.193876,-0.321844 -0.270394,-0.440277 -0.136266,-0.28438 -0.509694,-0.717509 -0.514812,-0.523489 l -0.01449,0.02009 0.902786,4.221727 c -0.0021,0.01466 -0.0041,0.02945 -0.0053,0.04542 l 1.012701,3.305297 0.963404,-3.385138 c 0,0 0.01206,-10e-4 0.01323,-0.0059 l 1.79e-4,-7.5e-4 0.844849,-4.06229 -0.0051,-0.01803 -0.0093,-0.01341 z"
           style="fill:#000000;fill-opacity:1;fill-rule:nonzero;stroke:none;stroke-width:0.352777;enable-background:new"
           id="path5435"
           inkscape:connector-curvature="0"
           sodipodi:nodetypes="cccccccccccccccccccccccccccczcccccccccccccccccccccccccccccscccccsccccc" />
      </g>
      <ellipse
         style="opacity:0.96;fill:#ffffff;fill-opacity:1;stroke:#000000;stroke-width:0.8;stroke-miterlimit:4;stroke-dasharray:none;stroke-opacity:1;paint-order:markers stroke fill"
         id="path957"
         cx="64.564484"
         cy="13.821516"
         rx="1.385939"
         ry="0.41869381" />
      <ellipse
         ry="0.076254725"
         rx="0.63892531"
         cy="13.821516"
         cx="64.564484"
         id="path957-2"
         style="display:inline;opacity:0.96;fill:#000005;fill-opacity:1;stroke:#000000;stroke-width:0.1;stroke-miterlimit:4;stroke-dasharray:none;stroke-opacity:1;paint-order:markers stroke fill;enable-background:new" />
    </g>
  </g>
</svg>
