<?xml version="1.0" encoding="UTF-8" standalone="no"?>
<!-- Created with Inkscape (http://www.inkscape.org/) -->

<svg
   xmlns:dc="http://purl.org/dc/elements/1.1/"
   xmlns:cc="http://creativecommons.org/ns#"
   xmlns:rdf="http://www.w3.org/1999/02/22-rdf-syntax-ns#"
   xmlns:svg="http://www.w3.org/2000/svg"
   xmlns="http://www.w3.org/2000/svg"
   xmlns:sodipodi="http://sodipodi.sourceforge.net/DTD/sodipodi-0.dtd"
   xmlns:inkscape="http://www.inkscape.org/namespaces/inkscape"
   width="48.315941mm"
   height="48.315941mm"
   viewBox="0 0 48.315941 48.315941"
   version="1.1"
   id="svg8"
   style="enable-background:new"
   inkscape:version="0.92.2 (5c3e80d, 2017-08-06)"
   sodipodi:docname="start_intervallometer.svg">
  <defs
     id="defs2">
    <marker
       inkscape:stockid="TriangleInL"
       orient="auto"
       refY="0.0"
       refX="0.0"
       id="TriangleInL"
       style="overflow:visible"
       inkscape:isstock="true">
      <path
         id="path1106"
         d="M 5.77,0.0 L -2.88,5.0 L -2.88,-5.0 L 5.77,0.0 z "
         style="fill-rule:evenodd;stroke:#000000;stroke-width:1pt;stroke-opacity:1;fill:#000000;fill-opacity:1"
         transform="scale(-0.8)" />
    </marker>
    <marker
       inkscape:stockid="TriangleOutL"
       orient="auto"
       refY="0.0"
       refX="0.0"
       id="TriangleOutL"
       style="overflow:visible"
       inkscape:isstock="true">
      <path
         id="path1115"
         d="M 5.77,0.0 L -2.88,5.0 L -2.88,-5.0 L 5.77,0.0 z "
         style="fill-rule:evenodd;stroke:#000000;stroke-width:1pt;stroke-opacity:1;fill:#000000;fill-opacity:1"
         transform="scale(0.8)" />
    </marker>
    <marker
       inkscape:stockid="Arrow2Mend"
       orient="auto"
       refY="0.0"
       refX="0.0"
       id="Arrow2Mend"
       style="overflow:visible;"
       inkscape:isstock="true">
      <path
         id="path1000"
         style="fill-rule:evenodd;stroke-width:0.625;stroke-linejoin:round;stroke:#000000;stroke-opacity:1;fill:#000000;fill-opacity:1"
         d="M 8.7185878,4.0337352 L -2.2072895,0.016013256 L 8.7185884,-4.0017078 C 6.9730900,-1.6296469 6.9831476,1.6157441 8.7185878,4.0337352 z "
         transform="scale(0.6) rotate(180) translate(0,0)" />
    </marker>
    <marker
       inkscape:stockid="Arrow1Lend"
       orient="auto"
       refY="0.0"
       refX="0.0"
       id="Arrow1Lend"
       style="overflow:visible;"
       inkscape:isstock="true">
      <path
         id="path976"
         d="M 0.0,0.0 L 5.0,-5.0 L -12.5,0.0 L 5.0,5.0 L 0.0,0.0 z "
         style="fill-rule:evenodd;stroke:#000000;stroke-width:1pt;stroke-opacity:1;fill:#000000;fill-opacity:1"
         transform="scale(0.8) rotate(180) translate(12.5,0)" />
    </marker>
    <marker
       inkscape:stockid="Arrow1Lstart"
       orient="auto"
       refY="0.0"
       refX="0.0"
       id="Arrow1Lstart"
       style="overflow:visible"
       inkscape:isstock="true">
      <path
         id="path973"
         d="M 0.0,0.0 L 5.0,-5.0 L -12.5,0.0 L 5.0,5.0 L 0.0,0.0 z "
         style="fill-rule:evenodd;stroke:#000000;stroke-width:1pt;stroke-opacity:1;fill:#000000;fill-opacity:1"
         transform="scale(0.8) translate(12.5,0)" />
    </marker>
    <filter
       inkscape:collect="always"
       style="color-interpolation-filters:sRGB"
       id="filter919">
      <feBlend
         inkscape:collect="always"
         mode="multiply"
         in2="BackgroundImage"
         id="feBlend921" />
    </filter>
    <marker
       inkscape:stockid="TriangleInL"
       orient="auto"
       refY="0"
       refX="0"
       id="TriangleInL-0"
       style="overflow:visible"
       inkscape:isstock="true">
      <path
         inkscape:connector-curvature="0"
         id="path1106-1"
         d="M 5.77,0 -2.88,5 V -5 Z"
         style="fill:#000000;fill-opacity:1;fill-rule:evenodd;stroke:#000000;stroke-width:1.00000003pt;stroke-opacity:1"
         transform="scale(-0.8)" />
    </marker>
    <marker
       inkscape:stockid="TriangleOutL"
       orient="auto"
       refY="0"
       refX="0"
       id="TriangleOutL-2"
       style="overflow:visible"
       inkscape:isstock="true">
      <path
         inkscape:connector-curvature="0"
         id="path1115-5"
         d="M 5.77,0 -2.88,5 V -5 Z"
         style="fill:#000000;fill-opacity:1;fill-rule:evenodd;stroke:#000000;stroke-width:1.00000003pt;stroke-opacity:1"
         transform="scale(0.8)" />
    </marker>
  </defs>
  <sodipodi:namedview
     id="base"
     pagecolor="#ffffff"
     bordercolor="#666666"
     borderopacity="1.0"
     inkscape:pageopacity="0.0"
     inkscape:pageshadow="2"
     inkscape:zoom="3.959798"
     inkscape:cx="78.606224"
     inkscape:cy="129.3937"
     inkscape:document-units="mm"
     inkscape:current-layer="layer5"
     showgrid="false"
     fit-margin-top="0"
     fit-margin-left="0"
     fit-margin-right="0"
     fit-margin-bottom="0"
     inkscape:snap-global="true"
     inkscape:window-width="1366"
     inkscape:window-height="716"
     inkscape:window-x="-8"
     inkscape:window-y="22"
     inkscape:window-maximized="1"
     inkscape:snap-bbox="true"
     inkscape:snap-bbox-midpoints="true"
     inkscape:snap-center="true"
     inkscape:snap-object-midpoints="true" />
  <metadata
     id="metadata5">
    <rdf:RDF>
      <cc:Work
         rdf:about="">
        <dc:format>image/svg+xml</dc:format>
        <dc:type
           rdf:resource="http://purl.org/dc/dcmitype/StillImage" />
        <dc:title></dc:title>
      </cc:Work>
    </rdf:RDF>
  </metadata>
  <g
     inkscape:groupmode="layer"
     id="layer2"
     inkscape:label="background"
     style="display:none"
     transform="translate(-3.5563138,-3.5563144)">
    <g
       transform="matrix(0.73974541,0,0,0.73974541,3.1089445,2.0565687)"
       style="stroke-width:1.35181642;filter:url(#filter919)"
       id="g927">
      <rect
         y="7.4702382"
         x="6.0476184"
         height="54.42857"
         width="54.42857"
         id="rect815"
         style="opacity:1;fill:#ff45ff;fill-opacity:1;stroke:#020000;stroke-width:1.35181642;stroke-linecap:square;stroke-linejoin:miter;stroke-miterlimit:4;stroke-dasharray:1.35181647, 5.40726585;stroke-dashoffset:0.2;stroke-opacity:1;paint-order:markers stroke fill" />
    </g>
  </g>
  <g
     inkscape:groupmode="layer"
     id="layer5"
     inkscape:label="ebene">
    <path
       style="opacity:1;fill:#8c8c8c;fill-opacity:1;stroke:none;stroke-width:1;stroke-linecap:butt;stroke-linejoin:miter;stroke-miterlimit:4;stroke-dasharray:1.00000003, 12.00000039;stroke-dashoffset:0;stroke-opacity:1;paint-order:markers stroke fill"
       id="path1881"
       sodipodi:type="arc"
       sodipodi:cx="24.131567"
       sodipodi:cy="23.891315"
       sodipodi:rx="12.779202"
       sodipodi:ry="12.779202"
       sodipodi:start="4.7025676"
       sodipodi:end="0.78539816"
       d="m 24.00606,11.112729 a 12.779202,12.779202 0 0 1 11.907793,7.830279 12.779202,12.779202 0 0 1 -2.746025,13.984568 l -9.036261,-9.036261 z" />
    <g
       id="g1674">
      <path
         inkscape:transform-center-y="-10.50474"
         inkscape:transform-center-x="-0.0083808555"
         inkscape:connector-curvature="0"
         id="path1655"
         d="m 24.187892,11.232295 c 0,4.34313 0,4.409947 0,4.409947 h 0.06682"
         style="fill:none;stroke:#000000;stroke-width:0.26458332px;stroke-linecap:butt;stroke-linejoin:miter;stroke-opacity:1" />
      <path
         inkscape:transform-center-y="-0.0083804689"
         inkscape:transform-center-x="10.50474"
         inkscape:connector-curvature="0"
         id="path1655-8"
         d="m 11.503208,23.967038 c 4.34313,0 4.409947,0 4.409947,0 v -0.06682"
         style="fill:none;stroke:#000000;stroke-width:0.26458332px;stroke-linecap:butt;stroke-linejoin:miter;stroke-opacity:1;enable-background:new" />
    </g>
    <path
       style="fill:none;stroke:#000000;stroke-width:0.26458332px;stroke-linecap:butt;stroke-linejoin:miter;stroke-opacity:1"
       d="m 24.23795,36.651721 c 0,-4.34313 0,-4.409947 0,-4.409947 h -0.06682"
       id="path1655-2"
       inkscape:connector-curvature="0"
       inkscape:transform-center-x="-0.0083808555"
       inkscape:transform-center-y="-10.50474" />
    <path
       style="fill:none;stroke:#000000;stroke-width:0.26458332px;stroke-linecap:butt;stroke-linejoin:miter;stroke-opacity:1;enable-background:new"
       d="m 36.922634,23.916978 c -4.34313,0 -4.409947,0 -4.409947,0 v 0.06682"
       id="path1655-8-9"
       inkscape:connector-curvature="0"
       inkscape:transform-center-x="10.50474"
       inkscape:transform-center-y="-0.0083804689" />
    <path
       inkscape:transform-center-y="-0.9739025"
       inkscape:transform-center-x="-12.199732"
       inkscape:connector-curvature="0"
       id="path1743"
       d="m 36.806083,22.808129 c -0.939712,0.08221 -0.954169,0.08348 -0.954169,0.08348 l 0.0058,0.06657"
       style="fill:none;stroke:#000000;stroke-width:0.26458332px;stroke-linecap:butt;stroke-linejoin:miter;stroke-opacity:1;enable-background:new" />
    <path
       style="fill:none;stroke:#000000;stroke-width:0.26458332px;stroke-linecap:butt;stroke-linejoin:miter;stroke-opacity:1;enable-background:new"
       d="m 36.666424,21.707263 c -0.928971,0.163799 -0.943263,0.166324 -0.943263,0.166324 l 0.01158,0.06581"
       id="path1745"
       inkscape:connector-curvature="0"
       inkscape:transform-center-x="-12.065526"
       inkscape:transform-center-y="-2.0337265" />
    <path
       inkscape:transform-center-y="-3.0780725"
       inkscape:transform-center-x="-11.839494"
       inkscape:connector-curvature="0"
       id="path1747"
       d="m 36.431349,20.622758 c -0.911159,0.244141 -0.925177,0.247902 -0.925177,0.247902 l 0.01727,0.06455"
       style="fill:none;stroke:#000000;stroke-width:0.26458332px;stroke-linecap:butt;stroke-linejoin:miter;stroke-opacity:1;enable-background:new" />
    <path
       style="fill:none;stroke:#000000;stroke-width:0.26458332px;stroke-linecap:butt;stroke-linejoin:miter;stroke-opacity:1;enable-background:new"
       d="m 36.102648,19.562868 c -0.886413,0.322625 -0.90005,0.327593 -0.90005,0.327593 l 0.02283,0.0628"
       id="path1749"
       inkscape:connector-curvature="0"
       inkscape:transform-center-x="-11.523356"
       inkscape:transform-center-y="-4.098992" />
    <path
       inkscape:transform-center-y="-5.088716"
       inkscape:transform-center-x="-11.119518"
       inkscape:connector-curvature="0"
       id="path1751"
       d="m 35.682822,18.53566 c -0.854921,0.398653 -0.868073,0.404791 -0.868073,0.404791 l 0.02822,0.06057"
       style="fill:none;stroke:#000000;stroke-width:0.26458332px;stroke-linecap:butt;stroke-linejoin:miter;stroke-opacity:1;enable-background:new" />
    <path
       style="fill:none;stroke:#000000;stroke-width:0.26458332px;stroke-linecap:butt;stroke-linejoin:miter;stroke-opacity:1;enable-background:new"
       d="m 35.175067,17.548951 c -0.816923,0.471647 -0.82949,0.478908 -0.82949,0.478908 l 0.03339,0.05788"
       id="path1753"
       inkscape:connector-curvature="0"
       inkscape:transform-center-x="-10.631054"
       inkscape:transform-center-y="-6.0397115" />
    <path
       inkscape:transform-center-y="-6.944741"
       inkscape:transform-center-x="-10.061682"
       inkscape:connector-curvature="0"
       id="path1755"
       d="m 34.583247,16.61025 c -0.772708,0.541052 -0.784594,0.549381 -0.784594,0.549381 l 0.03831,0.05475"
       style="fill:none;stroke:#000000;stroke-width:0.26458332px;stroke-linecap:butt;stroke-linejoin:miter;stroke-opacity:1;enable-background:new" />
    <path
       style="fill:none;stroke:#000000;stroke-width:0.26458332px;stroke-linecap:butt;stroke-linejoin:miter;stroke-opacity:1;enable-background:new"
       d="m 33.911866,15.726702 c -0.722612,0.606339 -0.733727,0.615672 -0.733727,0.615672 l 0.04294,0.0512"
       id="path1757"
       inkscape:connector-curvature="0"
       inkscape:transform-center-x="-9.4157345"
       inkscape:transform-center-y="-7.7969185" />
    <path
       inkscape:transform-center-y="-8.5897565"
       inkscape:transform-center-x="-8.6981275"
       inkscape:connector-curvature="0"
       id="path1759"
       d="m 33.166033,14.905031 c -0.667016,0.667011 -0.677275,0.677278 -0.677275,0.677278 l 0.04724,0.04726"
       style="fill:none;stroke:#000000;stroke-width:0.26458332px;stroke-linecap:butt;stroke-linejoin:miter;stroke-opacity:1;enable-background:new" />
    <path
       style="fill:none;stroke:#000000;stroke-width:0.26458332px;stroke-linecap:butt;stroke-linejoin:miter;stroke-opacity:1;enable-background:new"
       d="m 32.351425,14.15149 c -0.606344,0.722607 -0.615669,0.733729 -0.615669,0.733729 l 0.05118,0.04296"
       id="path1761"
       inkscape:connector-curvature="0"
       inkscape:transform-center-x="-7.9143225"
       inkscape:transform-center-y="-9.317222" />
    <path
       inkscape:transform-center-y="-9.9737745"
       inkscape:transform-center-x="-7.0702845"
       inkscape:connector-curvature="0"
       id="path1763"
       d="m 31.474241,13.471814 c -0.541057,0.772704 -0.549377,0.784596 -0.549377,0.784596 l 0.05473,0.03834"
       style="fill:none;stroke:#000000;stroke-width:0.26458332px;stroke-linecap:butt;stroke-linejoin:miter;stroke-opacity:1;enable-background:new" />
    <path
       style="fill:none;stroke:#000000;stroke-width:0.26458332px;stroke-linecap:butt;stroke-linejoin:miter;stroke-opacity:1;enable-background:new"
       d="m 30.541158,12.871176 c -0.471653,0.81692 -0.478905,0.829492 -0.478905,0.829492 l 0.05786,0.03342"
       id="path1765"
       inkscape:connector-curvature="0"
       inkscape:transform-center-x="-6.1724375"
       inkscape:transform-center-y="-10.554425" />
    <path
       inkscape:transform-center-y="-11.054747"
       inkscape:transform-center-x="-5.2276145"
       inkscape:connector-curvature="0"
       id="path1767"
       d="m 29.559276,12.354148 c -0.398659,0.854918 -0.404787,0.868074 -0.404787,0.868074 l 0.06055,0.02825"
       style="fill:none;stroke:#000000;stroke-width:0.26458332px;stroke-linecap:butt;stroke-linejoin:miter;stroke-opacity:1;enable-background:new" />
    <path
       style="fill:none;stroke:#000000;stroke-width:0.26458332px;stroke-linecap:butt;stroke-linejoin:miter;stroke-opacity:1;enable-background:new"
       d="m 28.536069,11.924664 c -0.322631,0.88641 -0.327589,0.90005 -0.327589,0.90005 l 0.06278,0.02286"
       id="path1769"
       inkscape:connector-curvature="0"
       inkscape:transform-center-x="-4.2430065"
       inkscape:transform-center-y="-11.470938" />
    <path
       inkscape:transform-center-y="-11.799827"
       inkscape:transform-center-x="-3.226106"
       inkscape:connector-curvature="0"
       id="path1771"
       d="m 27.479323,11.585992 c -0.244147,0.911156 -0.247898,0.925177 -0.247898,0.925177 l 0.06453,0.0173"
       style="fill:none;stroke:#000000;stroke-width:0.26458332px;stroke-linecap:butt;stroke-linejoin:miter;stroke-opacity:1;enable-background:new" />
    <path
       style="fill:none;stroke:#000000;stroke-width:0.26458332px;stroke-linecap:butt;stroke-linejoin:miter;stroke-opacity:1;enable-background:new"
       d="m 26.397081,11.340711 c -0.163805,0.928967 -0.16632,0.943262 -0.16632,0.943262 l 0.06579,0.01161"
       id="path1773"
       inkscape:connector-curvature="0"
       inkscape:transform-center-x="-2.184653"
       inkscape:transform-center-y="-12.038911" />
    <path
       inkscape:transform-center-y="-12.186387"
       inkscape:transform-center-x="-1.126572"
       inkscape:connector-curvature="0"
       id="path1775"
       d="m 25.29758,11.190687 c -0.08222,0.939708 -0.08348,0.954168 -0.08348,0.954168 l 0.06655,0.0058"
       style="fill:none;stroke:#000000;stroke-width:0.26458332px;stroke-linecap:butt;stroke-linejoin:miter;stroke-opacity:1;enable-background:new" />
    <path
       style="fill:none;stroke:#000000;stroke-width:0.26458332px;stroke-linecap:butt;stroke-linejoin:miter;stroke-opacity:1;enable-background:new"
       d="m 25.29758,11.190687 c -0.08222,0.939708 -0.08348,0.954168 -0.08348,0.954168 l 0.06655,0.0058"
       id="path1777"
       inkscape:connector-curvature="0"
       inkscape:transform-center-x="-1.126572"
       inkscape:transform-center-y="-12.186387" />
    <path
       inkscape:transform-center-y="-12.199732"
       inkscape:transform-center-x="0.97392001"
       inkscape:connector-curvature="0"
       id="path1779"
       d="m 23.080338,11.180242 c 0.08221,0.939709 0.08348,0.954168 0.08348,0.954168 l 0.06654,-0.0058"
       style="fill:none;stroke:#000000;stroke-width:0.26458332px;stroke-linecap:butt;stroke-linejoin:miter;stroke-opacity:1;enable-background:new" />
    <path
       style="fill:none;stroke:#000000;stroke-width:0.26458332px;stroke-linecap:butt;stroke-linejoin:miter;stroke-opacity:1;enable-background:new"
       d="m 21.979472,11.319901 c 0.163798,0.928968 0.166324,0.943262 0.166324,0.943262 l 0.06578,-0.01158"
       id="path1781"
       inkscape:connector-curvature="0"
       inkscape:transform-center-x="2.033744"
       inkscape:transform-center-y="-12.065526" />
    <path
       inkscape:transform-center-y="-11.839494"
       inkscape:transform-center-x="3.07809"
       inkscape:connector-curvature="0"
       id="path1783"
       d="m 20.894967,11.554976 c 0.24414,0.911157 0.247902,0.925176 0.247902,0.925176 l 0.06452,-0.01727"
       style="fill:none;stroke:#000000;stroke-width:0.26458332px;stroke-linecap:butt;stroke-linejoin:miter;stroke-opacity:1;enable-background:new" />
    <path
       style="fill:none;stroke:#000000;stroke-width:0.26458332px;stroke-linecap:butt;stroke-linejoin:miter;stroke-opacity:1;enable-background:new"
       d="m 19.835077,11.883677 c 0.322624,0.886412 0.327593,0.900049 0.327593,0.900049 l 0.06277,-0.02283"
       id="path1785"
       inkscape:connector-curvature="0"
       inkscape:transform-center-x="4.0990095"
       inkscape:transform-center-y="-11.523356" />
    <path
       inkscape:transform-center-y="-11.119518"
       inkscape:transform-center-x="5.0887335"
       inkscape:connector-curvature="0"
       id="path1787"
       d="m 18.807869,12.303503 c 0.398652,0.85492 0.404791,0.868072 0.404791,0.868072 l 0.06054,-0.02821"
       style="fill:none;stroke:#000000;stroke-width:0.26458332px;stroke-linecap:butt;stroke-linejoin:miter;stroke-opacity:1;enable-background:new" />
    <path
       style="fill:none;stroke:#000000;stroke-width:0.26458332px;stroke-linecap:butt;stroke-linejoin:miter;stroke-opacity:1;enable-background:new"
       d="m 17.82116,12.811258 c 0.471646,0.816922 0.478908,0.829489 0.478908,0.829489 l 0.05785,-0.03338"
       id="path1789"
       inkscape:connector-curvature="0"
       inkscape:transform-center-x="6.039729"
       inkscape:transform-center-y="-10.631054" />
    <path
       inkscape:transform-center-y="-10.061682"
       inkscape:transform-center-x="6.9447585"
       inkscape:connector-curvature="0"
       id="path1791"
       d="m 16.882459,13.403078 c 0.541051,0.772707 0.549381,0.784593 0.549381,0.784593 l 0.05472,-0.03829"
       style="fill:none;stroke:#000000;stroke-width:0.26458332px;stroke-linecap:butt;stroke-linejoin:miter;stroke-opacity:1;enable-background:new" />
    <path
       style="fill:none;stroke:#000000;stroke-width:0.26458332px;stroke-linecap:butt;stroke-linejoin:miter;stroke-opacity:1;enable-background:new"
       d="m 15.998911,14.07446 c 0.606338,0.72261 0.615672,0.733725 0.615672,0.733725 l 0.05118,-0.04291"
       id="path1793"
       inkscape:connector-curvature="0"
       inkscape:transform-center-x="7.796931"
       inkscape:transform-center-y="-9.415734" />
    <path
       inkscape:transform-center-y="-8.6981265"
       inkscape:transform-center-x="8.589764"
       inkscape:connector-curvature="0"
       id="path1795"
       d="m 15.17724,14.820293 c 0.66701,0.667014 0.677278,0.677274 0.677278,0.677274 l 0.04725,-0.04721"
       style="fill:none;stroke:#000000;stroke-width:0.26458332px;stroke-linecap:butt;stroke-linejoin:miter;stroke-opacity:1;enable-background:new" />
    <path
       style="fill:none;stroke:#000000;stroke-width:0.26458332px;stroke-linecap:butt;stroke-linejoin:miter;stroke-opacity:1;enable-background:new"
       d="m 14.423699,15.634901 c 0.722606,0.606342 0.733729,0.615668 0.733729,0.615668 l 0.04296,-0.05115"
       id="path1797"
       inkscape:connector-curvature="0"
       inkscape:transform-center-x="9.3172245"
       inkscape:transform-center-y="-7.9143215" />
    <path
       inkscape:transform-center-y="-7.0702835"
       inkscape:transform-center-x="9.9737765"
       inkscape:connector-curvature="0"
       id="path1799"
       d="m 13.744024,16.512085 c 0.772702,0.541055 0.784595,0.549376 0.784595,0.549376 l 0.03834,-0.0547"
       style="fill:none;stroke:#000000;stroke-width:0.26458332px;stroke-linecap:butt;stroke-linejoin:miter;stroke-opacity:1;enable-background:new" />
    <path
       style="fill:none;stroke:#000000;stroke-width:0.26458332px;stroke-linecap:butt;stroke-linejoin:miter;stroke-opacity:1;enable-background:new"
       d="m 13.143387,17.445168 c 0.816917,0.471651 0.82949,0.478904 0.82949,0.478904 l 0.03343,-0.05783"
       id="path1801"
       inkscape:connector-curvature="0"
       inkscape:transform-center-x="10.554421"
       inkscape:transform-center-y="-6.1724365" />
    <path
       inkscape:transform-center-y="-5.227613"
       inkscape:transform-center-x="11.054743"
       inkscape:connector-curvature="0"
       id="path1803"
       d="m 12.626359,18.42705 c 0.854915,0.398657 0.868072,0.404787 0.868072,0.404787 l 0.02826,-0.06052"
       style="fill:none;stroke:#000000;stroke-width:0.26458332px;stroke-linecap:butt;stroke-linejoin:miter;stroke-opacity:1;enable-background:new" />
    <path
       style="fill:none;stroke:#000000;stroke-width:0.26458332px;stroke-linecap:butt;stroke-linejoin:miter;stroke-opacity:1;enable-background:new"
       d="m 12.196875,19.450257 c 0.886407,0.32263 0.900048,0.32759 0.900048,0.32759 l 0.02288,-0.06275"
       id="path1805"
       inkscape:connector-curvature="0"
       inkscape:transform-center-x="11.470929"
       inkscape:transform-center-y="-4.2430045" />
    <path
       inkscape:transform-center-y="-3.226104"
       inkscape:transform-center-x="11.799818"
       inkscape:connector-curvature="0"
       id="path1807"
       d="m 11.858203,20.507003 c 0.911153,0.244147 0.925175,0.247899 0.925175,0.247899 l 0.01732,-0.06451"
       style="fill:none;stroke:#000000;stroke-width:0.26458332px;stroke-linecap:butt;stroke-linejoin:miter;stroke-opacity:1;enable-background:new" />
    <path
       style="fill:none;stroke:#000000;stroke-width:0.26458332px;stroke-linecap:butt;stroke-linejoin:miter;stroke-opacity:1;enable-background:new"
       d="m 11.612922,21.589245 c 0.928964,0.163806 0.94326,0.166321 0.94326,0.166321 l 0.01163,-0.06577"
       id="path1809"
       inkscape:connector-curvature="0"
       inkscape:transform-center-x="12.038902"
       inkscape:transform-center-y="-2.184651" />
    <path
       inkscape:transform-center-y="-1.1265705"
       inkscape:transform-center-x="12.186338"
       inkscape:connector-curvature="0"
       id="path1811"
       d="m 11.462898,22.688746 c 0.939705,0.08222 0.954166,0.08348 0.954166,0.08348 l 0.0059,-0.06653"
       style="fill:none;stroke:#000000;stroke-width:0.26458332px;stroke-linecap:butt;stroke-linejoin:miter;stroke-opacity:1;enable-background:new" />
    <path
       style="fill:none;stroke:#000000;stroke-width:0.26458332px;stroke-linecap:butt;stroke-linejoin:miter;stroke-opacity:1;enable-background:new"
       d="m 11.452453,24.905988 c 0.939706,-0.08221 0.954167,-0.08348 0.954167,-0.08348 l -0.0057,-0.06654"
       id="path1813"
       inkscape:connector-curvature="0"
       inkscape:transform-center-x="12.199732"
       inkscape:transform-center-y="0.97392151" />
    <path
       inkscape:transform-center-y="2.0337405"
       inkscape:transform-center-x="12.065525"
       inkscape:connector-curvature="0"
       id="path1815"
       d="m 11.592113,26.006854 c 0.928965,-0.163798 0.94326,-0.166324 0.94326,-0.166324 l -0.01148,-0.06579"
       style="fill:none;stroke:#000000;stroke-width:0.26458332px;stroke-linecap:butt;stroke-linejoin:miter;stroke-opacity:1;enable-background:new" />
    <path
       style="fill:none;stroke:#000000;stroke-width:0.26458332px;stroke-linecap:butt;stroke-linejoin:miter;stroke-opacity:1;enable-background:new"
       d="m 11.827188,27.091358 c 0.911154,-0.244139 0.925174,-0.247901 0.925174,-0.247901 l -0.01717,-0.06454"
       id="path1817"
       inkscape:connector-curvature="0"
       inkscape:transform-center-x="11.839493"
       inkscape:transform-center-y="3.078081" />
    <path
       inkscape:transform-center-y="4.098995"
       inkscape:transform-center-x="11.523355"
       inkscape:connector-curvature="0"
       id="path1819"
       d="m 12.155889,28.151247 c 0.886409,-0.322622 0.900048,-0.327591 0.900048,-0.327591 l -0.02273,-0.0628"
       style="fill:none;stroke:#000000;stroke-width:0.26458332px;stroke-linecap:butt;stroke-linejoin:miter;stroke-opacity:1;enable-background:new" />
    <path
       style="fill:none;stroke:#000000;stroke-width:0.26458332px;stroke-linecap:butt;stroke-linejoin:miter;stroke-opacity:1;enable-background:new"
       d="m 12.575715,29.178455 c 0.854917,-0.39865 0.868071,-0.404789 0.868071,-0.404789 l -0.02812,-0.06058"
       id="path1821"
       inkscape:connector-curvature="0"
       inkscape:transform-center-x="11.119517"
       inkscape:transform-center-y="5.088714" />
    <path
       inkscape:transform-center-y="6.0397045"
       inkscape:transform-center-x="10.631053"
       inkscape:connector-curvature="0"
       id="path1823"
       d="m 13.08347,30.165164 c 0.816919,-0.471644 0.829488,-0.478906 0.829488,-0.478906 l -0.03329,-0.0579"
       style="fill:none;stroke:#000000;stroke-width:0.26458332px;stroke-linecap:butt;stroke-linejoin:miter;stroke-opacity:1;enable-background:new" />
    <path
       style="fill:none;stroke:#000000;stroke-width:0.26458332px;stroke-linecap:butt;stroke-linejoin:miter;stroke-opacity:1;enable-background:new"
       d="m 13.67529,31.103864 c 0.772704,-0.541048 0.784593,-0.549378 0.784593,-0.549378 l -0.03821,-0.05478"
       id="path1825"
       inkscape:connector-curvature="0"
       inkscape:transform-center-x="10.06168"
       inkscape:transform-center-y="6.9447285" />
    <path
       inkscape:transform-center-y="7.796901"
       inkscape:transform-center-x="9.4157325"
       inkscape:connector-curvature="0"
       id="path1827"
       d="m 14.346671,31.987412 c 0.722609,-0.606335 0.733726,-0.615669 0.733726,-0.615669 l -0.04284,-0.05124"
       style="fill:none;stroke:#000000;stroke-width:0.26458332px;stroke-linecap:butt;stroke-linejoin:miter;stroke-opacity:1;enable-background:new" />
    <path
       style="fill:none;stroke:#000000;stroke-width:0.26458332px;stroke-linecap:butt;stroke-linejoin:miter;stroke-opacity:1;enable-background:new"
       d="m 15.092504,32.809083 c 0.667014,-0.667007 0.677275,-0.677275 0.677275,-0.677275 l -0.04714,-0.04731"
       id="path1829"
       inkscape:connector-curvature="0"
       inkscape:transform-center-x="8.698125"
       inkscape:transform-center-y="8.589734" />
    <path
       inkscape:transform-center-y="9.317194"
       inkscape:transform-center-x="7.91432"
       inkscape:connector-curvature="0"
       id="path1831"
       d="m 15.907112,33.562624 c 0.606342,-0.722603 0.615669,-0.733727 0.615669,-0.733727 l -0.05108,-0.04302"
       style="fill:none;stroke:#000000;stroke-width:0.26458332px;stroke-linecap:butt;stroke-linejoin:miter;stroke-opacity:1;enable-background:new" />
    <path
       style="fill:none;stroke:#000000;stroke-width:0.26458332px;stroke-linecap:butt;stroke-linejoin:miter;stroke-opacity:1;enable-background:new"
       d="m 16.784296,34.242299 c 0.541055,-0.772699 0.549377,-0.784594 0.549377,-0.784594 l -0.05464,-0.0384"
       id="path1833"
       inkscape:connector-curvature="0"
       inkscape:transform-center-x="7.070282"
       inkscape:transform-center-y="9.9737455" />
    <path
       inkscape:transform-center-y="10.55439"
       inkscape:transform-center-x="6.172435"
       inkscape:connector-curvature="0"
       id="path1835"
       d="m 17.717379,34.842936 c 0.471651,-0.816914 0.478905,-0.829489 0.478905,-0.829489 l -0.05778,-0.03349"
       style="fill:none;stroke:#000000;stroke-width:0.26458332px;stroke-linecap:butt;stroke-linejoin:miter;stroke-opacity:1;enable-background:new" />
    <path
       style="fill:none;stroke:#000000;stroke-width:0.26458332px;stroke-linecap:butt;stroke-linejoin:miter;stroke-opacity:1;enable-background:new"
       d="m 18.699261,35.359964 c 0.398657,-0.854912 0.404788,-0.868072 0.404788,-0.868072 l -0.06048,-0.02833"
       id="path1837"
       inkscape:connector-curvature="0"
       inkscape:transform-center-x="5.2276115"
       inkscape:transform-center-y="11.054707" />
    <path
       inkscape:transform-center-y="11.470893"
       inkscape:transform-center-x="4.2430035"
       inkscape:connector-curvature="0"
       id="path1839"
       d="m 19.722468,35.789448 c 0.32263,-0.886404 0.32759,-0.900048 0.32759,-0.900048 l -0.06272,-0.02295"
       style="fill:none;stroke:#000000;stroke-width:0.26458332px;stroke-linecap:butt;stroke-linejoin:miter;stroke-opacity:1;enable-background:new" />
    <path
       style="fill:none;stroke:#000000;stroke-width:0.26458332px;stroke-linecap:butt;stroke-linejoin:miter;stroke-opacity:1;enable-background:new"
       d="m 20.779214,36.128119 c 0.244147,-0.91115 0.247899,-0.925174 0.247899,-0.925174 l -0.06448,-0.0174"
       id="path1841"
       inkscape:connector-curvature="0"
       inkscape:transform-center-x="3.226103"
       inkscape:transform-center-y="11.799776" />
    <path
       inkscape:transform-center-y="12.03886"
       inkscape:transform-center-x="2.18465"
       inkscape:connector-curvature="0"
       id="path1843"
       d="m 21.861456,36.3734 c 0.163806,-0.928961 0.166321,-0.943259 0.166321,-0.943259 l -0.06575,-0.01171"
       style="fill:none;stroke:#000000;stroke-width:0.26458332px;stroke-linecap:butt;stroke-linejoin:miter;stroke-opacity:1;enable-background:new" />
    <path
       style="fill:none;stroke:#000000;stroke-width:0.26458332px;stroke-linecap:butt;stroke-linejoin:miter;stroke-opacity:1;enable-background:new"
       d="m 22.960957,36.523424 c 0.08222,-0.939702 0.08348,-0.954165 0.08348,-0.954165 l -0.06652,-0.0059"
       id="path1845"
       inkscape:connector-curvature="0"
       inkscape:transform-center-x="1.1265695"
       inkscape:transform-center-y="12.186336" />
    <path
       inkscape:transform-center-y="12.199731"
       inkscape:transform-center-x="-0.97392751"
       inkscape:connector-curvature="0"
       id="path1847"
       d="m 25.178199,36.533869 c -0.08221,-0.939704 -0.08348,-0.954166 -0.08348,-0.954166 l -0.06653,0.0057"
       style="fill:none;stroke:#000000;stroke-width:0.26458332px;stroke-linecap:butt;stroke-linejoin:miter;stroke-opacity:1;enable-background:new" />
    <path
       style="fill:none;stroke:#000000;stroke-width:0.26458332px;stroke-linecap:butt;stroke-linejoin:miter;stroke-opacity:1;enable-background:new"
       d="M 26.279065,36.394209 C 26.115267,35.465246 26.112741,35.45095 26.112741,35.45095 l -0.06578,0.01148"
       id="path1849"
       inkscape:connector-curvature="0"
       inkscape:transform-center-x="-2.0337465"
       inkscape:transform-center-y="12.065524" />
    <path
       inkscape:transform-center-y="11.839492"
       inkscape:transform-center-x="-3.078087"
       inkscape:connector-curvature="0"
       id="path1851"
       d="M 27.363569,36.159134 C 27.11943,35.247982 27.115668,35.233961 27.115668,35.233961 l -0.06453,0.01717"
       style="fill:none;stroke:#000000;stroke-width:0.26458332px;stroke-linecap:butt;stroke-linejoin:miter;stroke-opacity:1;enable-background:new" />
    <path
       style="fill:none;stroke:#000000;stroke-width:0.26458332px;stroke-linecap:butt;stroke-linejoin:miter;stroke-opacity:1;enable-background:new"
       d="m 28.423458,35.830433 c -0.322622,-0.886407 -0.327592,-0.900047 -0.327592,-0.900047 l -0.06279,0.02273"
       id="path1853"
       inkscape:connector-curvature="0"
       inkscape:transform-center-x="-4.0990005"
       inkscape:transform-center-y="11.523354" />
    <path
       inkscape:transform-center-y="11.119516"
       inkscape:transform-center-x="-5.0887195"
       inkscape:connector-curvature="0"
       id="path1855"
       d="m 29.450666,35.410607 c -0.39865,-0.854915 -0.40479,-0.86807 -0.40479,-0.86807 l -0.06057,0.02812"
       style="fill:none;stroke:#000000;stroke-width:0.26458332px;stroke-linecap:butt;stroke-linejoin:miter;stroke-opacity:1;enable-background:new" />
    <path
       style="fill:none;stroke:#000000;stroke-width:0.26458332px;stroke-linecap:butt;stroke-linejoin:miter;stroke-opacity:1;enable-background:new"
       d="m 30.437375,34.902852 c -0.471644,-0.816917 -0.478907,-0.829487 -0.478907,-0.829487 l -0.05789,0.03329"
       id="path1857"
       inkscape:connector-curvature="0"
       inkscape:transform-center-x="-6.03971"
       inkscape:transform-center-y="10.631052" />
    <path
       inkscape:transform-center-y="10.061679"
       inkscape:transform-center-x="-6.944734"
       inkscape:connector-curvature="0"
       id="path1859"
       d="M 31.376075,34.311032 C 30.835027,33.53833 30.826696,33.52644 30.826696,33.52644 l -0.05477,0.03821"
       style="fill:none;stroke:#000000;stroke-width:0.26458332px;stroke-linecap:butt;stroke-linejoin:miter;stroke-opacity:1;enable-background:new" />
    <path
       style="fill:none;stroke:#000000;stroke-width:0.26458332px;stroke-linecap:butt;stroke-linejoin:miter;stroke-opacity:1;enable-background:new"
       d="m 32.259623,33.63965 c -0.606335,-0.722606 -0.61567,-0.733724 -0.61567,-0.733724 l -0.05123,0.04284"
       id="path1861"
       inkscape:connector-curvature="0"
       inkscape:transform-center-x="-7.7969065"
       inkscape:transform-center-y="9.415731" />
    <path
       inkscape:transform-center-y="8.6981235"
       inkscape:transform-center-x="-8.5897395"
       inkscape:connector-curvature="0"
       id="path1863"
       d="m 33.081294,32.893817 c -0.667007,-0.667011 -0.677276,-0.677273 -0.677276,-0.677273 l -0.0473,0.04714"
       style="fill:none;stroke:#000000;stroke-width:0.26458332px;stroke-linecap:butt;stroke-linejoin:miter;stroke-opacity:1;enable-background:new" />
    <path
       style="fill:none;stroke:#000000;stroke-width:0.26458332px;stroke-linecap:butt;stroke-linejoin:miter;stroke-opacity:1;enable-background:new"
       d="m 33.834834,32.079209 c -0.722602,-0.60634 -0.733727,-0.615667 -0.733727,-0.615667 l -0.04301,0.05108"
       id="path1865"
       inkscape:connector-curvature="0"
       inkscape:transform-center-x="-9.317199"
       inkscape:transform-center-y="7.9143185" />
    <path
       inkscape:transform-center-y="7.0702805"
       inkscape:transform-center-x="-9.9737505"
       inkscape:connector-curvature="0"
       id="path1867"
       d="M 34.514509,31.202025 C 33.741811,30.660972 33.729915,30.65265 33.729915,30.65265 l -0.03839,0.05463"
       style="fill:none;stroke:#000000;stroke-width:0.26458332px;stroke-linecap:butt;stroke-linejoin:miter;stroke-opacity:1;enable-background:new" />
    <path
       style="fill:none;stroke:#000000;stroke-width:0.26458332px;stroke-linecap:butt;stroke-linejoin:miter;stroke-opacity:1;enable-background:new"
       d="m 35.115146,30.268942 c -0.816913,-0.471649 -0.829489,-0.478903 -0.829489,-0.478903 l -0.03348,0.05777"
       id="path1869"
       inkscape:connector-curvature="0"
       inkscape:transform-center-x="-10.554395"
       inkscape:transform-center-y="6.1724335" />
    <path
       inkscape:transform-center-y="5.22761"
       inkscape:transform-center-x="-11.054712"
       inkscape:connector-curvature="0"
       id="path1871"
       d="m 35.632174,29.28706 c -0.854911,-0.398655 -0.868072,-0.404786 -0.868072,-0.404786 l -0.02832,0.06047"
       style="fill:none;stroke:#000000;stroke-width:0.26458332px;stroke-linecap:butt;stroke-linejoin:miter;stroke-opacity:1;enable-background:new" />
    <path
       style="fill:none;stroke:#000000;stroke-width:0.26458332px;stroke-linecap:butt;stroke-linejoin:miter;stroke-opacity:1;enable-background:new"
       d="M 36.061658,28.263853 C 35.175255,27.941225 35.16161,27.936265 35.16161,27.936265 l -0.02294,0.06271"
       id="path1873"
       inkscape:connector-curvature="0"
       inkscape:transform-center-x="-11.470898"
       inkscape:transform-center-y="4.243002" />
    <path
       inkscape:transform-center-y="3.2261015"
       inkscape:transform-center-x="-11.799781"
       inkscape:connector-curvature="0"
       id="path1875"
       d="M 36.400329,27.207107 C 35.48918,26.962962 35.475155,26.95921 35.475155,26.95921 l -0.01739,0.06447"
       style="fill:none;stroke:#000000;stroke-width:0.26458332px;stroke-linecap:butt;stroke-linejoin:miter;stroke-opacity:1;enable-background:new" />
    <path
       style="fill:none;stroke:#000000;stroke-width:0.26458332px;stroke-linecap:butt;stroke-linejoin:miter;stroke-opacity:1;enable-background:new"
       d="m 36.64561,26.124865 c -0.92896,-0.163804 -0.943259,-0.166319 -0.943259,-0.166319 l -0.0117,0.06574"
       id="path1877"
       inkscape:connector-curvature="0"
       inkscape:transform-center-x="-12.038865"
       inkscape:transform-center-y="2.1846485" />
    <path
       inkscape:transform-center-y="1.126567"
       inkscape:transform-center-x="-12.186336"
       inkscape:connector-curvature="0"
       id="path1879"
       d="m 36.795634,25.025364 c -0.939701,-0.08222 -0.954165,-0.08348 -0.954165,-0.08348 l -0.0059,0.06651"
       style="fill:none;stroke:#000000;stroke-width:0.26458332px;stroke-linecap:butt;stroke-linejoin:miter;stroke-opacity:1;enable-background:new" />
    <path
       style="fill:#8c8c8c;fill-opacity:1;stroke:#000010;stroke-width:0.26458332px;stroke-linecap:butt;stroke-linejoin:miter;stroke-opacity:1"
       d="m 24.388344,1.6774095 h -2.739513 v 1.0690782 h 2.447151 v 2.070259 l 0.584724,0.033409 v -2.103668 h 2.447151 V 1.6774095 h -2.739513"
       id="path1883"
       inkscape:connector-curvature="0"
       sodipodi:nodetypes="cccccccccc"
       inkscape:transform-center-x="-0.25907535"
       inkscape:transform-center-y="-20.593273" />
    <path
       inkscape:transform-center-y="-16.351701"
       inkscape:transform-center-x="-14.168755"
       sodipodi:nodetypes="cccccccccc"
       inkscape:connector-curvature="0"
       id="path1896"
       d="M 38.643043,7.0834404 36.5506,5.3152168 l -0.690038,0.816563 1.869136,1.579518 -1.336252,1.5812659 0.425049,0.402929 1.357816,-1.6067838 1.869137,1.5795181 0.690038,-0.816563 -2.092443,-1.7682236"
       style="fill:#8c8c8c;fill-opacity:1;stroke:#000000;stroke-width:0.26458332px;stroke-linecap:butt;stroke-linejoin:miter;stroke-opacity:1" />
    <path
       inkscape:transform-center-y="-17.53471"
       inkscape:transform-center-x="12.530201"
       sodipodi:nodetypes="cccccccccc"
       inkscape:connector-curvature="0"
       id="path1898"
       d="M 11.284455,5.7735114 9.0697045,7.3859051 9.6989313,8.2501978 11.677322,6.8098794 12.895814,8.4835733 13.388195,8.166432 12.15004,6.4657287 14.128431,5.0254103 13.499205,4.1611176 11.284455,5.7735114"
       style="fill:#8c8c8c;fill-opacity:1;stroke:#000000;stroke-width:0.26458332px;stroke-linecap:butt;stroke-linejoin:miter;stroke-opacity:1" />
    <path
       style="fill:#8c8c8c;fill-opacity:1;stroke:#000000;stroke-width:0.26458332px;stroke-linecap:butt;stroke-linejoin:miter;stroke-opacity:1"
       d="M 39.889977,23.159197 42.679601,18.415164 42.451451,17.711682 42.191593,17.002977 41.90811,16.317895 41.577381,15.632813 41.341145,15.113096 41.057663,14.593379 40.60291,13.825615 40.082075,13.01966 39.614355,12.376542 39.232747,11.882581 38.807524,11.374675 38.163783,10.683688 37.655878,10.140347 37.266088,9.7741823 37.075295,9.6036213 36.419649,9.0523779 36.254692,8.9229191 36.098091,8.7997246 35.949839,8.6848822 35.816204,8.5825681 35.471676,8.3299148 35.189792,8.1294628 35.030714,8.0201364 34.834345,7.8916836 34.652738,7.7706132 34.444556,7.637731 34.240803,7.5122309 33.998662,7.3660605 33.738804,7.2184135 33.571963,7.122443 33.248615,6.9482197 32.928224,6.7828551 32.508745,6.5738705 32.187187,6.4256197 31.838482,6.2690163 31.531541,6.1437337 31.15778,5.9954826 30.744347,5.8409675 30.422789,5.7282132 30.138814,5.6321631 29.958199,5.575786 Z"
       id="path1900"
       inkscape:connector-curvature="0"
       inkscape:transform-center-x="-12.187333"
       inkscape:transform-center-y="-9.523824" />
    <path
       inkscape:transform-center-y="-16.66032"
       inkscape:transform-center-x="2.851613"
       inkscape:connector-curvature="0"
       id="path1902"
       d="M 31.376739,9.8780729 28.663098,5.0901711 27.939789,4.9360138 27.196104,4.806705 26.461064,4.709667 25.702401,4.653546 25.134195,4.598274 24.542366,4.583918 l -0.89228,0.00995 -0.958395,0.048079 -0.790816,0.083498 -0.618587,0.083502 -0.652471,0.1143009 -0.920283,0.2120025 -0.7245,0.1681882 -0.512002,0.1544857 -0.243107,0.079951 -0.805214,0.2921844 -0.194593,0.078128 -0.18499,0.074023 -0.173582,0.070969 -0.155425,0.064574 -0.391068,0.1720434 -0.314538,0.1438927 -0.174219,0.083102 -0.209428,0.1058341 -0.195653,0.096741 -0.219171,0.1138498 -0.210562,0.1137052 -0.247658,0.1366151 -0.257795,0.1512201 -0.166534,0.096503 -0.312555,0.1929159 -0.303406,0.1947845 -0.390725,0.2587872 -0.289168,0.204352 -0.309975,0.2236856 -0.261969,0.2031774 -0.315269,0.249561 -0.340531,0.2807859 -0.258427,0.2221003 -0.225169,0.1979045 -0.139132,0.1282286 z"
       style="fill:#8c8c8c;fill-opacity:1;stroke:#000000;stroke-width:0.26458332px;stroke-linecap:butt;stroke-linejoin:miter;stroke-opacity:1" />
    <path
       style="fill:#8c8c8c;fill-opacity:1;stroke:#000000;stroke-width:0.26458332px;stroke-linecap:butt;stroke-linejoin:miter;stroke-opacity:1;opacity:0.96"
       d="m 15.618329,10.610191 -5.503265,-0.04387 -0.4951587,0.549326 -0.4838272,0.579395 -0.4515574,0.588045 -0.4279337,0.628961 -0.33197,0.464444 -0.3083471,0.505361 -0.4375231,0.777712 -0.4375598,0.854034 -0.3230967,0.726616 -0.2369786,0.577463 -0.227248,0.622207 -0.276542,0.90299 -0.2165947,0.711529 -0.1222125,0.52065 -0.052314,0.250512 -0.1495679,0.843428 -0.029636,0.207587 -0.028389,0.197217 -0.02533,0.185811 -0.02179,0.166889 -0.04654,0.424697 -0.032654,0.344344 -0.015141,0.192429 -0.013059,0.234287 -0.014046,0.217811 -0.010989,0.246733 -0.00681,0.239204 -0.00552,0.282786 0.00206,0.298867 3.07e-4,0.192474 0.010793,0.367139 0.016985,0.360149 0.028754,0.467772 0.03239,0.352602 0.03873,0.380289 0.044972,0.328461 0.058492,0.397811 0.072902,0.435302 0.063131,0.334854 0.058806,0.293955 0.041483,0.184606 z"
       id="path1904"
       inkscape:connector-curvature="0"
       inkscape:transform-center-x="13.879038"
       inkscape:transform-center-y="-4.6066199" />
    <path
       inkscape:transform-center-y="9.5238256"
       inkscape:transform-center-x="12.187334"
       inkscape:connector-curvature="0"
       id="path1906"
       d="m 8.3731568,24.623433 -2.7896251,4.744033 0.228151,0.703483 0.2598571,0.708704 0.2834833,0.685082 0.3307293,0.685082 0.2362353,0.519717 0.2834819,0.519717 0.4547568,0.767762 0.5208353,0.805955 0.4677195,0.643118 0.3816084,0.493961 0.425223,0.507906 0.6437414,0.690987 0.507905,0.543341 0.38979,0.366164 0.190792,0.170562 0.655646,0.551243 0.164958,0.129459 0.156601,0.123194 0.148252,0.114842 0.133635,0.102315 0.344528,0.252654 0.281884,0.200451 0.159078,0.109327 0.196369,0.128453 0.181607,0.12107 0.208182,0.132883 0.203752,0.125499 0.24214,0.146174 0.259856,0.147649 0.166841,0.09597 0.323348,0.174222 0.320391,0.165365 0.419479,0.208984 0.321558,0.148251 0.348704,0.156603 0.306942,0.125284 0.37376,0.14825 0.413434,0.154516 0.321558,0.112754 0.283975,0.09605 0.180615,0.05638 z"
       style="fill:#8c8c8c;fill-opacity:1;stroke:#000000;stroke-width:0.26458332px;stroke-linecap:butt;stroke-linejoin:miter;stroke-opacity:1" />
    <path
       style="fill:#8c8c8c;fill-opacity:1;stroke:#000000;stroke-width:0.26458332px;stroke-linecap:butt;stroke-linejoin:miter;stroke-opacity:1"
       d="m 16.886394,37.904558 2.713641,4.787902 0.723309,0.154157 0.743685,0.129309 0.73504,0.09704 0.758663,0.05612 0.568206,0.05527 0.591829,0.01436 0.892279,-0.0099 0.958396,-0.04808 0.790816,-0.0835 0.618587,-0.0835 0.652471,-0.114301 0.920283,-0.212003 0.724499,-0.168188 0.512003,-0.154486 0.243107,-0.07995 0.805213,-0.292185 0.194594,-0.07813 0.18499,-0.07402 0.173582,-0.07097 0.155425,-0.06457 0.391068,-0.172043 0.314538,-0.143893 0.174219,-0.0831 0.209428,-0.105834 0.195653,-0.09674 0.219171,-0.11385 0.210562,-0.113704 0.24766,-0.136613 0.257796,-0.151217 0.166533,-0.0965 0.312554,-0.192916 0.303406,-0.194785 0.390725,-0.258787 0.289168,-0.204352 0.309975,-0.223685 0.26197,-0.203178 0.315268,-0.24956 0.340532,-0.280787 0.258427,-0.2221 0.225169,-0.197905 0.139134,-0.128227 z"
       id="path1908"
       inkscape:connector-curvature="0"
       inkscape:transform-center-x="-2.8516142"
       inkscape:transform-center-y="16.660322" />
    <path
       inkscape:transform-center-y="4.6066365"
       inkscape:transform-center-x="-13.879046"
       inkscape:connector-curvature="0"
       id="path1910"
       d="m 32.644805,37.17244 5.503265,0.04387 0.495158,-0.549325 0.483828,-0.579396 0.451559,-0.588043 0.427933,-0.628962 0.331968,-0.464445 0.308351,-0.505359 0.437565,-0.777687 0.43756,-0.854035 0.323095,-0.726617 0.23698,-0.577462 0.227248,-0.622207 0.276542,-0.90299 0.216594,-0.711528 0.122213,-0.520651 0.05232,-0.250512 0.149566,-0.843427 0.02963,-0.207588 0.02839,-0.197216 0.02533,-0.185812 0.02179,-0.166887 0.04654,-0.424696 0.03265,-0.344345 0.01514,-0.192428 0.01306,-0.234287 0.01405,-0.21781 0.01099,-0.246733 0.0068,-0.239204 0.0055,-0.282786 -0.0021,-0.298867 -3.05e-4,-0.192471 -0.01079,-0.367138 -0.01698,-0.36015 -0.02875,-0.467771 -0.03239,-0.352603 -0.03873,-0.380289 -0.04497,-0.328461 -0.05849,-0.39781 -0.0729,-0.435303 -0.06313,-0.334855 -0.05881,-0.293954 -0.04148,-0.184607 z"
       style="fill:#8c8c8c;fill-opacity:1;stroke:#000000;stroke-width:0.26458332px;stroke-linecap:butt;stroke-linejoin:miter;stroke-opacity:1" />
  </g>
</svg>
